<ttFont>
<head>
    <!-- Most of this table will be recalculated by the compiler -->
    <tableVersion value="1.0"/>
    <fontRevision value="1.0"/>
    <checkSumAdjustment value="0xe9c40de1"/>
    <magicNumber value="0x5f0f3cf5"/>
    <flags value="00000000 00000011"/>
    <unitsPerEm value="2048"/>
    <created value="Thu Aug 15 19:07:20 2019"/>
    <modified value="Fri Aug 16 02:18:52 2019"/>
    <xMin value="-590"/>
    <yMin value="-500"/>
    <xMax value="3797"/>
    <yMax value="2064"/>
<macStyle value="00000000 00000000"/>
    <lowestRecPPEM value="3"/>
    <fontDirectionHint value="2"/>
    <indexToLocFormat value="0"/>
    <glyphDataFormat value="0"/>
  </head>
          <CharString index="0">
            -594 17 callsubr
            return
          </CharString>
          <CharString index="1">
            rmoveto
            -563 -71 0 -61 44 return
          </CharString>
          <CharString index="2">
            rmoveto
            80 callsubr
            return
          </CharString>
          <CharString index="3">
            325 -259 200 -362 -362 -260 -218 -317 return
          </CharString>
          <CharString index="4">
            -742 54 callsubr
            return
          </CharString>
          <CharString index="5">
            -14 rlineto
            -81 callsubr
            return
          </CharString>
          <CharString index="6">
            440 -327 302 -485 104 callsubr
            vhcurveto
            40 callsubr
            -58 callgsubr
          </CharString>
          <CharString index="7">
            rmoveto
            -3 callsubr
            74 callsubr
            endchar
          </CharString>
          <CharString index="8">
            rmoveto
            183 140 72 118 32 hvcurveto
            return
          </CharString>
          <CharString index="9">
            63 callsubr
            endchar
          </CharString>
          <CharString index="10">
            650 63 vlineto
            -73 17 -14 20 75 vvcurveto
            return
          </CharString>
          <CharString index="11">
            161 callsubr
            endchar
          </CharString>
          <CharString index="12">
            rmoveto
            1032 -8 callsubr
            return
          </CharString>
          <CharString index="13">
            rmoveto
            -13 callsubr
            1252 vlineto
            -44 callsubr
            -16 callsubr
            endchar
          </CharString>
          <CharString index="14">
            -79 callsubr
            endchar
          </CharString>
          <CharString index="15">
            rmoveto
            109 callsubr
            return
          </CharString>
          <CharString index="16">
            -1032 vlineto
            -91 -23 -28 return
          </CharString>
          <CharString index="17">
            68 callsubr
            endchar
          </CharString>
          <CharString index="18">
            rmoveto
            -697 vlineto
            -386 273 -184 371 374 204 227 342 7 vhcurveto
            157 callsubr
            -20 23 -29 -90 vvcurveto
            endchar
          </CharString>
          <CharString index="19">
            rmoveto
            -564 -71 0 -61 44 -14 rlineto
            56 -21 9 -17 181 callsubr
            48 vhcurveto
            -197 vlineto
            return
          </CharString>
          <CharString index="20">
            71 callsubr
            endchar
          </CharString>
          <CharString index="21">
            rmoveto
            14 callsubr
            return
          </CharString>
          <CharString index="22">
            -104 -24 vhcurveto
            -63 742 63 vlineto
            return
          </CharString>
          <CharString index="23">
            -104 24 -24 28 91 vvcurveto
            endchar
          </CharString>
          <CharString index="24">
            rmoveto
            675 191 -675 hlineto
            endchar
          </CharString>
          <CharString index="25">
            1116 rmoveto
            289 175 return
          </CharString>
          <CharString index="26">
            56 -21 9 -17 -76 vvcurveto
            return
          </CharString>
          <CharString index="27">
            1522 rmoveto
            465 302 rlineto
            7 -449 vlineto
            -97 -309 rlineto
            return
          </CharString>
          <CharString index="28">
            673 63 vlineto
            -91 19 -19 24 75 vvcurveto
            return
          </CharString>
          <CharString index="29">
            rmoveto
            -560 -71 0 -61 44 -14 rlineto
            return
          </CharString>
          <CharString index="30">
            rmoveto
            106 85 72 100 100 -85 71 -106 return
          </CharString>
          <CharString index="31">
            1032 vlineto
            93 24 27 104 23 vhcurveto
            63 -732 -63 vlineto
            95 -19 return
          </CharString>
          <CharString index="32">
            -113 -20 vhcurveto
            -63 -46 callsubr
            return
          </CharString>
          <CharString index="33">
            1116 rmoveto
            484 391 rlineto
            8 return
          </CharString>
          <CharString index="34">
            1851 rmoveto
            -272 -130 return
          </CharString>
          <CharString index="35">
            -58 -44 -64 -65 58 -45 return
          </CharString>
          <CharString index="36">
            rmoveto
            378 -879 -78 -105 -148 -158 -108 -95 rlinecurve
            -6 315 vlineto
            145 393 177 416 171 411 61 148 30 29 77 17 rlinecurve
            65 -350 -65 vlineto
            106 -14 6 -36 -45 -138 rrcurveto
            -121 -372 -119 373 -44 137 4 38 111 12 rlinecurve
            65 -718 -65 vlineto
            74 -17 23 -26 53 -128 rrcurveto
            endchar
          </CharString>
          <CharString index="37">
            1541 rmoveto
            -289 -175 -289 175 return
          </CharString>
          <CharString index="38">
            -15 rlineto
            56 -21 9 -16 -77 vvcurveto
            return
          </CharString>
          <CharString index="39">
            615 -50 callgsubr
            -531 vlineto
            -75 -17 -20 -71 46 callsubr
            -18 24 75 vvcurveto
            523 49 callgsubr
            return
          </CharString>
          <CharString index="40">
            -69 callgsubr
            97 22 rlinecurve
            63 -396 -63 vlineto
            229 callsubr
            endchar
          </CharString>
          <CharString index="41">
            85 70 61 86 85 -70 61 -85 -86 -70 -61 -85 -86 70 -61 86 hvcurveto
            return
          </CharString>
          <CharString index="42">
            -442 rlineto
            60 hlineto
            55 249 84 86 197 29 33 5 rcurveline
            return
          </CharString>
          <CharString index="43">
            vlineto
            34 -5 199 -30 83 -89 54 -245 rlinecurve
            60 hlineto
            return
          </CharString>
          <CharString index="44">
            1514 rmoveto
            96 79 68 94 95 -79 67 -96 -97 return
          </CharString>
          <CharString index="45">
            -1032 vlineto
            -91 -24 -28 -103 -24 vhcurveto
            -63 return
          </CharString>
          <CharString index="46">
            -106 -85 -71 -100 -100 85 -72 106 hvcurveto
            endchar
          </CharString>
          <CharString index="47">
            -91 callsubr
            -104 -24 vhcurveto
            -63 return
          </CharString>
          <CharString index="48">
            604 1035 -78 callsubr
            return
          </CharString>
          <CharString index="49">
            -1073 17 callsubr
            return
          </CharString>
          <CharString index="50">
            -68 callsubr
            endchar
          </CharString>
          <CharString index="51">
            607 1515 -106 callsubr
            -69 callsubr
            -58 callsubr
            return
          </CharString>
          <CharString index="52">
            339 92 339 -92 0 63 -316 233 -46 0 -316 -233 rlineto
            return
          </CharString>
          <CharString index="53">
            393 hmoveto
            75 61 53 75 77 -61 52 -75 hvcurveto
            -15 hlineto
            return
          </CharString>
          <CharString index="54">
            rmoveto
            105 86 72 100 100 -86 71 -105 -61 callsubr
          </CharString>
          <CharString index="55">
            23 -28 -89 vvcurveto
            -468 -435 10 callgsubr
            return
          </CharString>
          <CharString index="56">
            rmoveto
            296 -565 rlineto
            -399 vlineto
            -101 -26 -38 return
          </CharString>
          <CharString index="57">
            80 0 -217 308 105 callsubr
            return
          </CharString>
          <CharString index="58">
            rmoveto
            158 112 73 120 118 return
          </CharString>
          <CharString index="59">
            -1149 -86 callgsubr
            return
          </CharString>
          <CharString index="60">
            -450 vlineto
            -114 -399 rlineto
            return
          </CharString>
          <CharString index="61">
            764 63 vlineto
            -113 20 return
          </CharString>
          <CharString index="62">
            -26 38 101 vvcurveto
            1149 return
          </CharString>
          <CharString index="63">
            11 474 rlineto
            -61 hlineto
            -69 -289 -95 -90 -269 -15 rrcurveto
            -155 -7 0 628 125 -4 134 -7 39 -62 31 -155 rlinecurve
            57 528 -57 hlineto
            -31 -153 return
          </CharString>
          <CharString index="64">
            289 -175 80 0 -236 399 -266 0 -236 -399 rlineto
            return
          </CharString>
          <CharString index="65">
            rmoveto
            -95 -78 -68 -95 -96 78 -68 95 8 callsubr
          </CharString>
          <CharString index="66">
            1522 rmoveto
            273 129 272 -129 return
          </CharString>
          <CharString index="67">
            1514 rmoveto
            97 78 68 94 95 -78 67 -97 return
          </CharString>
          <CharString index="68">
            1372 1444 rmoveto
            -1324 hlineto
            -11 return
          </CharString>
          <CharString index="69">
            1144 rmoveto
            107 87 75 105 105 -87 75 -107 return
          </CharString>
          <CharString index="70">
            1575 rmoveto
            653 178 -653 hlineto
            return
          </CharString>
          <CharString index="71">
            103 -24 24 -28 -91 vvcurveto
            -62 callsubr
            return
          </CharString>
          <CharString index="72">
            rmoveto
            181 vlineto
            -696 -224 rlineto
            -51 vlineto
            return
          </CharString>
          <CharString index="73">
            731 63 vlineto
            -95 20 -22 29 87 vvcurveto
            return
          </CharString>
          <CharString index="74">
            -105 -86 -71 -100 -100 86 -72 105 hvcurveto
            endchar
          </CharString>
          <CharString index="75">
            45 65 64 -58 44 -71 hvcurveto
            return
          </CharString>
          <CharString index="76">
            rmoveto
            -167 167 -101 215 -22 vhcurveto
            -255 -18 -136 -109 -1 -149 rrcurveto
            -154 164 -98 250 1 vhcurveto
            -323 -3 -117 -65 -98 vvcurveto
            -125 1 207 -88 370 hhcurveto
            363 254 161 230 1 hvcurveto
            209 -156 134 -328 vhcurveto
            -164 hlineto
            -112 -52 29 49 42 35 26 53 11 hvcurveto
            -3 39 39 -3 42 hhcurveto
            321 229 115 196 99 -75 87 -115 35 hvcurveto
            278 -27 0 115 -351 -27 rlineto
            28 -79 -105 19 -114 hhcurveto
            -325 -220 -132 -197 hvcurveto
            440 16 rmoveto
            146 33 90 79 72 44 -93 -153 -148 -33 -90 -79 -72 -44 94 154 vhcurveto
            -101 -978 rmoveto
            82 56 48 86 4 vhcurveto
            122 hlineto
            125 58 -51 -79 -92 -93 -63 -144 -128 -82 59 92 hvcurveto
            endchar
          </CharString>
          <CharString index="77">
            -242 148 -103 199 151 130 65 72 49 vhcurveto
            88 callgsubr
            -4 callgsubr
            return
          </CharString>
          <CharString index="78">
            rmoveto
            212 133 108 182 -6 hvcurveto
            -73 hlineto
            -61 -10 -107 -40 -149 hhcurveto
            -149 -107 41 60 -10 hvcurveto
            -73 hlineto
            -182 -6 133 -108 212 hhcurveto
            return
          </CharString>
          <CharString index="79">
            rmoveto
            133 78 72 callsubr
            -78 -88 -160 5 hvcurveto
            73 hlineto
            57 1 27 26 57 66 callgsubr
            return
          </CharString>
          <CharString index="80">
            rmoveto
            217 137 92 155 -6 hvcurveto
            -75 hlineto
            -52 -9 -112 -34 -152 hhcurveto
            -152 -112 35 51 return
          </CharString>
          <CharString index="81">
            -229 -127 311 347 396 136 268 219 -23 callgsubr
          </CharString>
          <CharString index="82">
            rmoveto
            222 30 199 148 222 vvcurveto
            152 -96 102 return
          </CharString>
          <CharString index="83">
            rmoveto
            301 391 rlineto
            8 -375 vlineto
            -16 -399 rlineto
            return
          </CharString>
          <CharString index="84">
            rmoveto
            75 62 53 75 77 -62 52 -75 hvcurveto
            -15 hlineto
            return
          </CharString>
          <CharString index="85">
            rmoveto
            72 58 45 65 64 -58 44 -72 hvcurveto
            -15 hlineto
            return
          </CharString>
          <CharString index="86">
            -108 -86 -75 -105 -105 86 -75 108 hvcurveto
            return
          </CharString>
          <CharString index="87">
            507 hmoveto
            107 87 75 105 105 -87 75 -107 return
          </CharString>
          <CharString index="88">
            -273 130 -79 0 217 -309 return
          </CharString>
          <CharString index="89">
            683 1444 -1 callsubr
            return
          </CharString>
          <CharString index="90">
            151 125 71 125 120 return
          </CharString>
          <CharString index="91">
            -38 -63 -135 14 callgsubr
            return
          </CharString>
          <CharString index="92">
            -80 0 236 -42 callgsubr
            return
          </CharString>
          <CharString index="93">
            rmoveto
            -95 -79 -68 -95 -96 79 -68 95 return
          </CharString>
          <CharString index="94">
            -1207 61 callsubr
            return
          </CharString>
          <CharString index="95">
            1522 99 callgsubr
            return
          </CharString>
          <CharString index="96">
            -141 -113 60 90 vhcurveto
            1 return
          </CharString>
          <CharString index="97">
            -1 hlineto
            -92 -112 -58 -142 return
          </CharString>
          <CharString index="98">
            -63 hlineto
            104 -24 23 -28 -91 vvcurveto
            return
          </CharString>
          <CharString index="99">
            vlineto
            91 24 28 104 24 vhcurveto
            63 return
          </CharString>
          <CharString index="100">
            71 hvcurveto
            374 hmoveto
            71 58 return
          </CharString>
          <CharString index="101">
            18 8 27 6 28 -1 rrcurveto
            return
          </CharString>
          <CharString index="102">
            rmoveto
            279 -783 289 0 227 672 239 -672 290 0 248 738 56 170 33 30 74 16 rlinecurve
            65 -330 -65 vlineto
            90 -13 9 -37 -40 -159 rrcurveto
            -104 -393 -99 390 -39 160 6 42 92 10 rlinecurve
            65 -669 -65 vlineto
            86 -13 9 -37 -39 -159 rrcurveto
            -103 -394 -98 391 -38 160 5 42 92 10 rlinecurve
            65 -708 -65 vlineto
            71 -18 28 -31 44 -122 rrcurveto
            endchar
          </CharString>
          <CharString index="103">
            rmoveto
            -434 325 -303 509 223 220 46 87 126 vhcurveto
            426 vlineto
            84 22 29 94 14 vhcurveto
            64 -665 -64 vlineto
            100 -13 22 -29 -84 vvcurveto
            -439 vlineto
            -19 -18 -45 -16 -53 hhcurveto
            -212 -112 305 353 396 127 268 231 191 136 -213 -237 52 hvcurveto
            61 hlineto
            -7 454 rlineto
            53 -87 -173 29 -194 hhcurveto
            -484 -389 -255 -502 hvcurveto
            endchar
          </CharString>
          <CharString index="104">
            -394 1152 -372 0 -393 -1128 -69 -196 -33 -35 -101 -23 rlinecurve
            -63 421 63 vlineto
            -129 23 -26 41 57 187 rrcurveto
            49 160 414 0 52 -165 57 -182 -26 -42 -126 -22 rlinecurve
            -63 return
          </CharString>
          <CharString index="105">
            22 -20 37 -3 154 rrcurveto
            -20 907 654 -1184 427 0 20 1171 4 152 19 38 104 20 rlinecurve
            63 -383 -64 vlineto
            114 -21 20 -38 4 -154 20 -760 rcurveline
            return
          </CharString>
          <CharString index="106">
            rmoveto
            -648 -63 hlineto
            104 -21 27 -45 -97 vvcurveto
            -16 -945 -3 -152 -19 -38 -105 -20 rlinecurve
            -63 384 64 vlineto
            -115 return
          </CharString>
          <CharString index="107">
            1122 rmoveto
            120 96 85 116 117 -96 83 -120 -119 -96 -83 -117 -116 96 -85 119 hvcurveto
            return
          </CharString>
          <CharString index="108">
            rmoveto
            -477 376 -268 493 185 169 35 55 84 vhcurveto
            -70 callgsubr
            return
          </CharString>
          <CharString index="109">
            1521 -87 callgsubr
            -59 vlineto
            return
          </CharString>
          <CharString index="110">
            1521 rmoveto
            678 -110 0 59 -678 264 rlineto
            return
          </CharString>
          <CharString index="111">
            10 507 rlineto
            -61 hlineto
            -71 -305 -107 -107 -229 -16 return
          </CharString>
          <CharString index="112">
            1116 rmoveto
            80 hlineto
            -103 399 rlineto
            -465 -8 hlineto
            return
          </CharString>
          <CharString index="113">
            vlineto
            87 22 28 95 21 vhcurveto
            63 -731 -63 vlineto
            return
          </CharString>
          <CharString index="114">
            1197 rmoveto
            726 212 -726 hlineto
            return
          </CharString>
          <CharString index="115">
            95 78 68 96 95 -78 68 -95 hvcurveto
            endchar
          </CharString>
          <CharString index="116">
            -102 67 -131 -103 62 callsubr
            return
          </CharString>
          <CharString index="117">
            rmoveto
            76 62 53 75 77 -62 52 -76 hvcurveto
            return
          </CharString>
          <CharString index="118">
            63 vlineto
            -113 20 -25 38 101 vvcurveto
            return
          </CharString>
          <CharString index="119">
            -96 -79 -67 -95 -94 79 -68 96 hvcurveto
            return
          </CharString>
          <CharString index="120">
            -107 -87 -75 -105 -105 87 -75 107 hvcurveto
            return
          </CharString>
          <CharString index="121">
            -333 266 -193 319 return
          </CharString>
          <CharString index="122">
            -69 -61 -85 -86 69 -61 86 hvcurveto
            return
          </CharString>
          <CharString index="123">
            hhcurveto
            51 34 -23 -40 -41 -38 -23 return
          </CharString>
          <CharString index="124">
            vlineto
            -75 -19 -24 -90 -19 vhcurveto
            -63 return
          </CharString>
          <CharString index="125">
            1758 72 718 rmoveto
            return
          </CharString>
          <CharString index="126">
            831 142 323 rmoveto
            return
          </CharString>
          <CharString index="127">
            1 -48 rlineto
            5 8 19 4 return
          </CharString>
          <CharString index="128">
            1 -53 rlineto
            25 26 50 17 return
          </CharString>
          <CharString index="129">
            rmoveto
            338 -1152 350 0 315 1093 307 -1093 356 0 336 1129 58 195 34 37 99 21 rlinecurve
            63 -411 -63 vlineto
            122 -21 20 -41 -44 -183 rrcurveto
            -189 -767 -201 799 -41 157 7 32 117 24 rlinecurve
            63 -746 -63 vlineto
            112 -21 10 -33 -37 -150 rrcurveto
            -200 -808 -194 780 -42 170 24 39 129 23 rlinecurve
            63 -809 -63 vlineto
            98 -20 32 -41 50 -169 rrcurveto
            endchar
          </CharString>
          <CharString index="130">
            rmoveto
            487 vlineto
            62 -1 327 -685 rlineto
            548 61 hlineto
            -58 27 -31 37 -115 230 rrcurveto
            -336 695 100 97 164 154 77 49 129 31 rlinecurve
            63 -462 -63 vlineto
            115 -23 13 -32 -116 -137 rrcurveto
            -354 -423 -63 -1 rlineto
            480 6 callsubr
            -36 callsubr
            -39 callgsubr
            endchar
          </CharString>
          <CharString index="131">
            1764 665 199 rmoveto
            84 callgsubr
            return
          </CharString>
          <CharString index="132">
            10 474 rlineto
            -62 hlineto
            -71 -295 -101 -83 -299 -16 rrcurveto
            -161 -7 691 1310 rlineto
            61 -16 callgsubr
            endchar
          </CharString>
          <CharString index="133">
            -65 vlineto
            90 -18 19 -24 -75 vvcurveto
            -656 17 callsubr
            return
          </CharString>
          <CharString index="134">
            -272 130 -80 0 217 -309 52 callsubr
            return
          </CharString>
          <CharString index="135">
            -107 -6 rcurveline
            1157 vlineto
            96 25 34 113 21 vhcurveto
            63 -752 54 callsubr
            -62 callsubr
            vlineto
            return
          </CharString>
          <CharString index="136">
            rmoveto
            195 170 73 118 85 hvcurveto
            158 callsubr
            -333 267 -193 319 vhcurveto
            endchar
          </CharString>
          <CharString index="137">
            1149 rmoveto
            139 94 104 249 -18 hvcurveto
            -74 hlineto
            -96 -34 -39 -57 return
          </CharString>
          <CharString index="138">
            1276 1230 hmoveto
            4 callsubr
            28 callsubr
            return
          </CharString>
          <CharString index="139">
            1116 rmoveto
            483 391 rlineto
            8 -449 vlineto
            -114 -399 rlineto
            return
          </CharString>
          <CharString index="140">
            -72 vlineto
            -3 -18 -2 -20 -22 vvcurveto
            -145 104 -148 227 vhcurveto
            return
          </CharString>
          <CharString index="141">
            348 78 348 -78 0 53 -325 97 callsubr
            return
          </CharString>
          <CharString index="142">
            1116 rmoveto
            483 391 rlineto
            8 51 callsubr
            return
          </CharString>
          <CharString index="143">
            1429 586 1035 -88 callsubr
            return
          </CharString>
          <CharString index="144">
            1535 rmoveto
            -143 -103 -78 -90 -41 hvcurveto
            return
          </CharString>
          <CharString index="145">
            -142 -83 callgsubr
            390 201 return
          </CharString>
          <CharString index="146">
            -108 -87 -75 -105 -105 87 -75 108 hvcurveto
            return
          </CharString>
          <CharString index="147">
            536 13 rmoveto
            407 78 245 188 return
          </CharString>
          <CharString index="148">
            14 30 -48 vhcurveto
            -33 21 rlineto
            41 -65 -58 21 return
          </CharString>
          <CharString index="149">
            rmoveto
            269 158 268 -158 75 0 return
          </CharString>
          <CharString index="150">
            1654 745 128 callsubr
            return
          </CharString>
          <CharString index="151">
            230 164 164 231 232 return
          </CharString>
          <CharString index="152">
            79 68 96 95 -79 68 -95 hvcurveto
            endchar
          </CharString>
          <CharString index="153">
            -17 vhcurveto
            -63 650 63 vlineto
            -91 19 return
          </CharString>
          <CharString index="154">
            -75 -62 -52 -77 -75 62 -53 75 hvcurveto
            return
          </CharString>
          <CharString index="155">
            -76 -61 -52 -77 -75 61 -53 76 hvcurveto
            return
          </CharString>
          <CharString index="156">
            -85 -70 -61 -85 -86 70 -61 85 hvcurveto
            return
          </CharString>
          <CharString index="157">
            1522 rmoveto
            272 129 return
          </CharString>
          <CharString index="158">
            -449 vlineto
            -115 -399 rlineto
            return
          </CharString>
          <CharString index="159">
            269 0 217 309 rlineto
            return
          </CharString>
          <CharString index="160">
            123 138 377 vvcurveto
            endchar
          </CharString>
          <CharString index="161">
            -63 vlineto
            104 -24 23 -28 -91 vvcurveto
            return
          </CharString>
          <CharString index="162">
            -78 -67 -95 -94 78 -68 97 hvcurveto
            return
          </CharString>
          <CharString index="163">
            -79 -67 -95 -94 79 -68 97 hvcurveto
            return
          </CharString>
          <CharString index="164">
            1175 57 504 rmoveto
            return
          </CharString>
          <CharString index="165">
            -695 -224 rlineto
            -51 vlineto
            return
          </CharString>
          <CharString index="166">
            -636 vlineto
            -331 -37 -100 return
          </CharString>
          <CharString index="167">
            -58 -47 -46 15 20 -25 hvcurveto
            return
          </CharString>
          <CharString index="168">
            -63 hlineto
            -36 callsubr
            return
          </CharString>
          <CharString index="169">
            -79 -45 -60 -32 hvcurveto
            -53 vlineto
            return
          </CharString>
          <CharString index="170">
            -123 22 141 -62 140 hhcurveto
            107 97 27 35 50 hvcurveto
            60 vlineto
            -2 -8 -14 -1 -13 hhcurveto
            -49 -37 34 78 hvcurveto
            450 vlineto
            258 -190 117 -341 -333 -180 -129 -151 -100 82 -73 106 105 84 79 101 73 -44 63 -64 26 vhcurveto
            8 29 31 4 33 hhcurveto
            158 80 -71 -178 hvcurveto
            -104 vlineto
            -189 -37 rlineto
            -339 -63 -119 -113 -153 vvcurveto
            -146 116 -97 184 vhcurveto
            139 311 rmoveto
            111 51 77 123 32 vhcurveto
            34 7 rlineto
            -304 vlineto
            -44 -13 -38 -27 -53 hhcurveto
            -59 -45 49 99 hvcurveto
            return
          </CharString>
          <CharString index="171">
            rmoveto
            -121 -182 -47 -40 -104 -22 rrcurveto
            -63 416 63 vlineto
            -124 22 -5 37 98 170 rrcurveto
            171 296 173 -304 92 -163 -5 -34 -129 -24 rlinecurve
            -63 808 63 vlineto
            -86 30 -47 52 -86 151 rrcurveto
            -291 508 223 334 120 182 47 39 105 22 rlinecurve
            63 -413 -63 vlineto
            122 -22 5 -37 -97 -170 rrcurveto
            -155 -272 -160 280 -91 164 3 33 130 24 rlinecurve
            63 -808 -64 vlineto
            87 -29 45 -52 87 -152 277 -483 rcurveline
            endchar
          </CharString>
          <CharString index="172">
            rmoveto
            279 -249 143 -438 vhcurveto
            -762 61 callsubr
            -107 callgsubr
            349 148 vlineto
            388 299 155 296 hvcurveto
            -510 -19 rmoveto
            -209 -103 -137 -172 -10 vhcurveto
            -50 -3 0 727 50 -3 rlineto
            189 -10 86 -147 -208 vvcurveto
            endchar
          </CharString>
          <CharString index="173">
            55 -20 10 -18 -76 vvcurveto
            -594 146 callsubr
            -103 21 -21 25 80 vvcurveto
            -1 458 rlineto
            29 39 94 19 98 hhcurveto
            75 75 -13 -16 38 hvcurveto
            14 34 11 55 59 vvcurveto
            124 -54 97 -110 -118 -88 -98 -250 -77 vhcurveto
            return
          </CharString>
          <CharString index="174">
            rmoveto
            -7 -381 rlineto
            62 hlineto
            54 216 66 74 192 14 rrcurveto
            83 5 -473 -889 rlineto
            -58 961 vlineto
            4 397 rlineto
            -61 hlineto
            -45 -228 -76 -83 -198 -12 rrcurveto
            -93 -4 471 891 rlineto
            58 vlineto
            return
          </CharString>
          <CharString index="175">
            207 174 69 126 83 vhcurveto
            -1 63 rlineto
            -44 -47 -81 -33 -85 hhcurveto
            -185 -146 115 242 -41 hvcurveto
            598 -85 callgsubr
            -185 176 -303 -24 callgsubr
            return
          </CharString>
          <CharString index="176">
            1389 57 498 132 callsubr
            177 callsubr
            return
          </CharString>
          <CharString index="177">
            rmoveto
            -660 -63 hlineto
            104 -18 28 -43 -3 -94 rrcurveto
            -32 -954 -7 -152 -20 -38 -104 -19 rlinecurve
            -63 384 64 vlineto
            208 callsubr
            endchar
          </CharString>
          <CharString index="178">
            560 59 0 61 -44 14 rlineto
            -57 21 -9 17 77 vvcurveto
            800 vlineto
            -563 -71 0 -61 44 -102 callsubr
            81 callgsubr
            return
          </CharString>
          <CharString index="179">
            87 161 -5 hvcurveto
            -73 hlineto
            -58 -1 -27 -25 -57 hhcurveto
            -32 -35 8 13 -42 hvcurveto
            -43 14 rlineto
            17 -54 -53 13 -55 hhcurveto
            -133 return
          </CharString>
          <CharString index="180">
            -919 vlineto
            -389 -64 -147 -195 -129 vhcurveto
            24 -55 rlineto
            476 152 246 177 377 vvcurveto
            endchar
          </CharString>
          <CharString index="181">
            813 63 vlineto
            -101 22 -35 40 -58 168 rrcurveto
            -963 270 rmoveto
            177 578 182 -578 rlineto
            return
          </CharString>
          <CharString index="182">
            rmoveto
            -570 -71 0 -61 46 -14 rlineto
            60 -22 10 -16 181 callsubr
            201 callsubr
            endchar
          </CharString>
          <CharString index="183">
            1132 rmoveto
            113 92 80 111 112 -92 79 -113 -114 -101 callgsubr
            return
          </CharString>
          <CharString index="184">
            1548 rmoveto
            227 104 148 145 22 -2 20 -3 18 hvcurveto
            return
          </CharString>
          <CharString index="185">
            97 78 68 94 95 -78 68 -97 -96 -78 -68 -95 -94 78 -68 96 hvcurveto
            return
          </CharString>
          <CharString index="186">
            1878 rmoveto
            -124 -90 -64 -74 -36 hvcurveto
            1 -46 rlineto
            20 23 return
          </CharString>
          <CharString index="187">
            -440 324 -303 488 481 322 325 427 return
          </CharString>
          <CharString index="188">
            hhcurveto
            36 30 -14 -31 47 hvcurveto
            34 -21 rlineto
            -40 64 57 -21 70 hhcurveto
            return
          </CharString>
          <CharString index="189">
            rmoveto
            157 112 73 120 118 -102 67 -130 -104 return
          </CharString>
          <CharString index="190">
            rmoveto
            -94 -79 -68 -95 -96 79 -68 94 95 45 callsubr
          </CharString>
          <CharString index="191">
            -159 -126 69 101 vhcurveto
            1 -74 67 callgsubr
            return
          </CharString>
          <CharString index="192">
            -220 360 -247 0 -220 -360 rlineto
            endchar
          </CharString>
          <CharString index="193">
            hhcurveto
            -137 -78 -76 -136 4 hvcurveto
            75 hlineto
            48 1 return
          </CharString>
          <CharString index="194">
            1533 rmoveto
            126 89 92 227 -17 hvcurveto
            return
          </CharString>
          <CharString index="195">
            1530 rmoveto
            86 70 61 86 85 -70 61 -86 return
          </CharString>
          <CharString index="196">
            104 -254 -415 -407 -80 -246 -186 return
          </CharString>
          <CharString index="197">
            -230 -232 164 -164 225 hvcurveto
            return
          </CharString>
          <CharString index="198">
            -113 69 -132 -13 -14 -1 -1 -12 hvcurveto
            return
          </CharString>
          <CharString index="199">
            rmoveto
            80 hlineto
            -85 308 rlineto
            -463 -7 hlineto
            return
          </CharString>
          <CharString index="200">
            273 -129 79 0 -217 308 return
          </CharString>
          <CharString index="201">
            -1 -61 rlineto
            -63 40 93 -43 109 hhcurveto
            return
          </CharString>
          <CharString index="202">
            rmoveto
            -95 -78 -68 -95 -96 78 -68 95 95 return
          </CharString>
          <CharString index="203">
            hlineto
            -155 -6 137 -92 217 hhcurveto
            return
          </CharString>
          <CharString index="204">
            198 -47 0 -325 -198 rlineto
            return
          </CharString>
          <CharString index="205">
            86 69 61 86 85 -69 61 -86 -86 return
          </CharString>
          <CharString index="206">
            -55 16 23 -28 vhcurveto
            -1 -55 rlineto
            -57 return
          </CharString>
          <CharString index="207">
            -1138 -92 callsubr
            return
          </CharString>
          <CharString index="208">
            1515 rmoveto
            -398 -8 hlineto
            return
          </CharString>
          <CharString index="209">
            1464 111 callsubr
            return
          </CharString>
          <CharString index="210">
            1132 -7 callgsubr
            return
          </CharString>
          <CharString index="211">
            -483 -320 -324 -427 return
          </CharString>
          <CharString index="212">
            -269 0 -217 -308 rlineto
            return
          </CharString>
          <CharString index="213">
            -225 -229 -165 -164 return
          </CharString>
          <CharString index="214">
            -175 -102 256 414 vhcurveto
            return
          </CharString>
          <CharString index="215">
            677 -22 -92 callsubr
            return
          </CharString>
          <CharString index="216">
            362 261 220 316 return
          </CharString>
          <CharString index="217">
            355 -22 -99 callsubr
            return
          </CharString>
          <CharString index="218">
            rmoveto
            680 173 -680 hlineto
            return
          </CharString>
          <CharString index="219">
            rmoveto
            385 281 168 314 227 -129 168 -281 89 hvcurveto
            -137 44 rlineto
            -159 51 -63 65 99 vvcurveto
            107 81 76 151 188 140 -165 -226 48 vhcurveto
            61 hlineto
            -5 391 rlineto
            53 -89 -161 33 -193 hhcurveto
            -418 -247 -182 -296 -223 143 -155 267 -85 hvcurveto
            137 -44 rlineto
            162 -51 62 -72 -105 vvcurveto
            -113 -90 -82 -149 -201 -193 183 277 -55 vhcurveto
            -60 hlineto
            13 -456 rlineto
            -54 114 195 -36 202 hhcurveto
            return
          </CharString>
          <CharString index="220">
            rmoveto
            -385 273 -184 370 364 217 223 345 3 vhcurveto
            8 842 rlineto
            -8 35 39 -4 37 hhcurveto
            146 103 66 118 116 -94 108 -165 49 hvcurveto
            -62 hlineto
            25 -26 19 -58 -60 vvcurveto
            -128 -1 -95 -114 -175 hhcurveto
            -63 -64 hlineto
            123 -23 20 -33 2 -148 8 -623 rcurveline
            -252 2 -125 -156 -198 hhcurveto
            -203 -127 125 284 hvcurveto
            685 vlineto
            91 26 27 119 24 vhcurveto
            63 -767 -63 vlineto
            109 -23 27 -28 -91 vvcurveto
            endchar
          </CharString>
          <CharString index="221">
            rmoveto
            -218 353 149 207 90 136 49 34 79 14 rlinecurve
            65 -363 -65 vlineto
            95 -17 5 -32 -74 -134 rrcurveto
            -78 -130 -81 132 -77 132 10 34 95 15 rlinecurve
            65 -690 -65 vlineto
            55 -13 35 -28 65 -104 rrcurveto
            219 -355 -147 -195 -99 -142 -46 -34 -85 -20 rlinecurve
            -63 372 63 vlineto
            -92 18 -8 34 74 133 rrcurveto
            78 129 79 -127 77 -136 -12 -34 -94 -17 rlinecurve
            -63 692 63 vlineto
            -55 15 -35 30 -64 102 rrcurveto
            endchar
          </CharString>
          <CharString index="222">
            rmoveto
            -181 129 -99 193 -63 vhcurveto
            90 -29 rlineto
            100 -33 44 -37 -63 vvcurveto
            -65 -58 -44 -106 -159 -129 132 168 -40 vhcurveto
            -62 hlineto
            10 -303 rlineto
            -45 87 158 -34 147 hhcurveto
            337 215 130 229 180 -105 104 -212 68 hvcurveto
            -91 29 rlineto
            -101 34 -48 34 62 vvcurveto
            63 53 44 106 135 92 -97 -156 46 vhcurveto
            62 hlineto
            -5 280 rlineto
            29 -63 -126 26 -148 hhcurveto
            -359 -192 -140 -223 hvcurveto
            return
          </CharString>
          <CharString index="223">
            rmoveto
            -133 -112 -55 -63 -60 hvcurveto
            -59 vlineto
            4 8 17 5 17 hhcurveto
            58 22 -39 -103 hvcurveto
            -60 -6 -189 -59 vvcurveto
            -283 160 -159 290 324 219 293 365 265 -92 138 -153 -153 -86 -151 -187 41 vhcurveto
            179 -19 105 -138 -158 vvcurveto
            -133 -79 -85 -106 -114 -73 86 171 -1 vhcurveto
            67 6 152 60 vvcurveto
            222 -88 112 -190 vhcurveto
            endchar
          </CharString>
          <CharString index="224">
            330 -172 190 -236 -164 -120 -74 -126 -44 vhcurveto
            3 674 -563 -70 0 -61 43 -15 rlineto
            57 -21 9 -16 -77 vvcurveto
            -1254 291 vlineto
            127 135 rlineto
            -90 41 119 -66 144 hhcurveto
            250 215 178 363 hvcurveto
            -466 -36 rmoveto
            -254 -68 -117 -97 -49 -39 30 32 -14 vhcurveto
            616 vlineto
            39 17 39 30 51 hhcurveto
            93 67 -124 -252 hvcurveto
            return
          </CharString>
          <CharString index="225">
            1639 820 -25 rmoveto
            410 338 337 411 411 -338 337 -410 -411 -337 -337 -411 -411 338 -337 410 hvcurveto
            52 vmoveto
            -379 -313 313 383 382 312 314 380 378 313 -313 -383 -382 -313 -314 -378 hvcurveto
            return
          </CharString>
          <CharString index="226">
            rmoveto
            234 -204 124 -305 9 vhcurveto
            236 8 217 99 203 vvcurveto
            231 -255 111 -422 vhcurveto
            -742 -9 callsubr
            -62 callsubr
            207 callsubr
            endchar
          </CharString>
          <CharString index="227">
            rmoveto
            12 -689 rlineto
            -247 5 122 -105 209 hhcurveto
            166 132 90 108 66 hvcurveto
            60 vlineto
            -22 -31 -42 -11 -48 hhcurveto
            -89 -61 48 119 3 hvcurveto
            64 17 391 9 194 vhcurveto
            endchar
          </CharString>
          <CharString index="228">
            1544 156 1242 rmoveto
            -697 vlineto
            -386 273 -184 371 374 204 227 342 7 vhcurveto
            157 callsubr
            -20 23 -29 -90 vvcurveto
            return
          </CharString>
          <CharString index="229">
            493 1444 rmoveto
            -127 hlineto
            -277 -151 0 -39 131 36 rlineto
            -474 vlineto
            -60 -32 -21 -95 -11 vhcurveto
            -43 526 43 vlineto
            -95 11 -31 21 60 vvcurveto
            return
          </CharString>
          <CharString index="230">
            453 668 rmoveto
            230 164 164 230 232 -164 164 106 callsubr
            -231 -232 164 -163 225 hvcurveto
            return
          </CharString>
          <CharString index="231">
            70 hvcurveto
            375 hmoveto
            71 58 -32 callsubr
            -15 hlineto
            -72 -72 callsubr
            72 hvcurveto
            endchar
          </CharString>
          <CharString index="232">
            74 1 hlineto
            104 125 66 160 159 126 -69 -101 vhcurveto
            -1 74 vlineto
            4 21 return
          </CharString>
          <CharString index="233">
            vlineto
            74 14 20 73 16 vhcurveto
            65 -650 26 callsubr
            -97 callsubr
            endchar
          </CharString>
          <CharString index="234">
            -77 -88 -160 4 hvcurveto
            73 hlineto
            57 1 28 26 56 66 callgsubr
            return
          </CharString>
          <CharString index="235">
            165 callsubr
            -535 -25 -54 callgsubr
            45 callgsubr
            return
          </CharString>
          <CharString index="236">
            86 69 62 85 86 -69 60 -86 -86 -69 -60 -86 -85 69 -62 86 hvcurveto
            return
          </CharString>
          <CharString index="237">
            -57 -47 -47 15 20 -24 hvcurveto
            -1 -61 rlineto
            -63 40 92 -43 109 hhcurveto
            return
          </CharString>
          <CharString index="238">
            17 rlineto
            37 -59 -52 18 -65 hhcurveto
            -125 -89 -93 -226 18 hvcurveto
            return
          </CharString>
          <CharString index="239">
            rmoveto
            -329 171 -191 236 164 119 76 126 return
          </CharString>
          <CharString index="240">
            -668 rmoveto
            133 hlineto
            889 1444 rlineto
            -133 hlineto
            return
          </CharString>
          <CharString index="241">
            156 callsubr
            40 callsubr
            -58 callgsubr
          </CharString>
          <CharString index="242">
            -28 -95 -19 vhcurveto
            -63 732 63 vlineto
            -104 23 -24 27 93 vvcurveto
            return
          </CharString>
          <CharString index="243">
            rmoveto
            129 88 93 224 -17 hvcurveto
            -69 hlineto
            -87 -32 -35 -53 return
          </CharString>
          <CharString index="244">
            1522 rmoveto
            79 hlineto
            -84 308 rlineto
            -464 -7 hlineto
            return
          </CharString>
          <CharString index="245">
            30 -14 -31 47 vhcurveto
            34 -21 rlineto
            -40 64 57 -21 70 hhcurveto
            return
          </CharString>
          <CharString index="246">
            28 6 27 -1 rrcurveto
            55 -1 40 -20 -39 vvcurveto
            -38 -35 -22 return
          </CharString>
          <CharString index="247">
            -69 hhcurveto
            -138 -95 -105 -250 19 hvcurveto
            74 hlineto
            99 1 return
          </CharString>
          <CharString index="248">
            1831 rmoveto
            -397 -7 hlineto
            392 -302 rlineto
            return
          </CharString>
          <CharString index="249">
            370 hmoveto
            98 callsubr
            15 callsubr
            return
          </CharString>
          <CharString index="250">
            -4 hvcurveto
            -75 hlineto
            -49 -1 -27 -22 -58 hhcurveto
            -34 -35 7 return
          </CharString>
          <CharString index="251">
            -30 -55 -54 -35 -48 76 callgsubr
            -136 vhcurveto
            return
          </CharString>
          <CharString index="252">
            -73 hlineto
            -84 -1 -30 -34 -50 hhcurveto
            -31 -28 11 27 return
          </CharString>
          <CharString index="253">
            vlineto
            -75 -19 -25 -90 -18 vhcurveto
            -63 687 63 vlineto
            return
          </CharString>
          <CharString index="254">
            1394 878 hmoveto
            155 callsubr
            return
          </CharString>
          <CharString index="255">
            1197 rmoveto
            725 212 -725 hlineto
            return
          </CharString>
          <CharString index="256">
            -140 20 hvcurveto
            127 15 80 57 90 vvcurveto
            return
          </CharString>
          <CharString index="257">
            rmoveto
            203 152 101 197 17 hvcurveto
            -191 73 201 -107 207 hhcurveto
            198 170 70 115 86 hvcurveto
            63 vlineto
            -39 -45 -84 -28 -79 hhcurveto
            -180 -142 116 246 -40 hvcurveto
            588 hlineto
            3 20 2 33 33 vvcurveto
            259 -183 173 -294 -116 -120 -42 -61 -67 vhcurveto
            65 -60 -120 38 -176 hhcurveto
            -288 -171 -118 -149 -96 75 -70 104 110 83 73 98 72 -47 60 -66 24 hvcurveto
            8 31 34 5 36 hhcurveto
            162 86 -83 -192 hvcurveto
            -87 vlineto
            -197 -31 rlineto
            -334 -47 -119 -120 -158 vvcurveto
            -165 129 -85 178 vhcurveto
            726 692 rmoveto
            184 43 103 79 71 28 -94 -177 -38 0 -27 -1 -22 vhcurveto
            -217 -4 rlineto
            -2 24 -1 25 26 vvcurveto
            -499 -518 rmoveto
            -57 -39 47 99 115 57 69 125 26 hvcurveto
            30 5 rlineto
            -165 vlineto
            -144 -50 -52 -66 vhcurveto
            endchar
          </CharString>
          <CharString index="258">
            rmoveto
            -1114 hlineto
            -500 -1094 -105 -230 -47 -37 -93 -20 rlinecurve
            -63 422 63 vlineto
            -125 23 -23 46 88 212 rrcurveto
            106 252 401 0 5 -397 rlineto
            -89 -22 -28 -95 -19 vhcurveto
            -63 1142 vlineto
            10 474 rlineto
            -61 hlineto
            -67 -289 -82 -88 -250 -17 rrcurveto
            -126 -7 -7 628 103 -4 127 -7 39 -62 29 -155 rlinecurve
            58 hlineto
            -4 528 rlineto
            -57 hlineto
            -29 -153 -36 -63 -129 -7 rrcurveto
            -102 -4 -7 597 111 -6 254 -16 75 -87 61 -259 rlinecurve
            62 hlineto
            -1077 365 rmoveto
            65 hlineto
            9 -683 rlineto
            -362 hlineto
            endchar
          </CharString>
          <CharString index="259">
            rmoveto
            231 -2 -196 158 -451 hhcurveto
            -766 -63 hlineto
            103 -23 24 -28 -92 vvcurveto
            -62 callsubr
            -34 callsubr
            445 90 vlineto
            271 -644 rlineto
            530 61 hlineto
            -52 23 -36 41 -76 168 rrcurveto
            -193 439 166 48 102 114 -1 161 rlinecurve
            -479 -24 rmoveto
            -188 -117 -114 -156 -10 vhcurveto
            -49 -2 0 654 46 -2 rlineto
            179 -11 97 -136 -191 vvcurveto
            return
          </CharString>
          <CharString index="260">
            rmoveto
            322 -175 197 -236 -169 -116 -85 -117 -39 vhcurveto
            198 vlineto
            -560 -71 0 -61 44 -14 rlineto
            55 -20 10 -18 -76 vvcurveto
            -1054 146 callsubr
            -102 21 -22 25 80 vvcurveto
            376 vlineto
            -74 36 114 -53 120 hhcurveto
            243 219 87 callgsubr
            -100 -49 -39 28 32 -13 vhcurveto
            615 vlineto
            43 16 37 29 49 hhcurveto
            101 63 -140 -236 hvcurveto
            endchar
          </CharString>
          <CharString index="261">
            1593 665 199 rmoveto
            487 vlineto
            62 -1 327 -685 rlineto
            548 61 hlineto
            -58 27 -31 37 -115 230 rrcurveto
            -336 695 100 97 164 154 77 49 129 31 rlinecurve
            63 -462 -63 vlineto
            115 -23 13 -32 -116 -137 rrcurveto
            -354 -423 -63 -1 rlineto
            480 6 callsubr
            -36 callsubr
            -39 callgsubr
            return
          </CharString>
          <CharString index="262">
            527 61 hlineto
            -52 24 -41 39 -114 235 rrcurveto
            -202 413 137 108 87 46 118 28 rlinecurve
            65 -471 -65 vlineto
            126 -25 3 -67 -98 -92 rrcurveto
            -244 -241 -47 -1 0 987 -563 -71 0 -61 44 -69 callsubr
            -58 callsubr
            -97 callsubr
            278 48 vlineto
            return
          </CharString>
          <CharString index="263">
            305 -165 237 -243 112 vhcurveto
            -13 60 63 -8 63 hhcurveto
            162 111 69 122 1 hvcurveto
            1 115 -98 116 -169 48 rrcurveto
            -63 hlineto
            26 -26 18 -59 -1 -58 rrcurveto
            -132 -1 -94 -108 -161 -105 -97 22 -120 hhcurveto
            104 callsubr
            hvcurveto
            return
          </CharString>
          <CharString index="264">
            11 627 4 152 17 37 100 21 rlinecurve
            63 -372 -64 vlineto
            113 -23 20 -36 4 -154 12 -598 rcurveline
            -272 6 -137 -152 -196 hhcurveto
            -196 -128 132 278 hvcurveto
            683 vlineto
            91 24 28 105 24 vhcurveto
            63 -733 -63 vlineto
            94 return
          </CharString>
          <CharString index="265">
            64 vlineto
            -41 -46 -90 -27 -82 hhcurveto
            -192 -161 148 267 220 112 130 159 30 28 -5 -9 26 hvcurveto
            -90 -11 -69 -77 -94 vvcurveto
            -103 83 -81 105 102 86 80 113 172 -166 124 -267 -348 -256 -210 -325 return
          </CharString>
          <CharString index="266">
            46 vhcurveto
            -194 vlineto
            564 59 0 60 -47 16 rlineto
            -58 20 -8 17 77 vvcurveto
            1273 vlineto
            -565 -64 0 -61 44 -15 rlineto
            58 -21 8 -16 -77 vvcurveto
            -342 vlineto
            77 -38 -114 50 -124 hhcurveto
            -245 -211 -177 -364 hvcurveto
            return
          </CharString>
          <CharString index="267">
            rmoveto
            137 77 75 137 -3 hvcurveto
            -75 hlineto
            -49 -1 -28 -22 -58 hhcurveto
            -33 -35 7 12 -43 hvcurveto
            -44 11 rlineto
            14 -56 -54 13 -57 86 callsubr
            28 22 58 hhcurveto
            33 35 -7 -11 43 hvcurveto
            44 -11 rlineto
            -15 56 54 -12 57 hhcurveto
            endchar
          </CharString>
          <CharString index="268">
            -324 258 -202 362 hvcurveto
            6 83 rmoveto
            -100 -53 158 296 282 42 160 101 100 52 -158 -296 -282 -41 -160 -101 hvcurveto
            return
          </CharString>
          <CharString index="269">
            hvcurveto
            -68 hlineto
            -87 -1 -31 -35 -53 hhcurveto
            -33 -28 13 27 -45 hvcurveto
            -30 19 rlineto
            37 -61 -54 19 -65 hhcurveto
            -128 -88 -94 -225 18 hvcurveto
            return
          </CharString>
          <CharString index="270">
            1515 rmoveto
            -397 -8 hlineto
            413 -391 rlineto
            91 hlineto
            337 399 rmoveto
            -358 -8 hlineto
            268 -391 rlineto
            86 hlineto
            return
          </CharString>
          <CharString index="271">
            1451 111 callsubr
            340 -521 rmoveto
            81 64 58 82 83 -64 57 -81 -80 -65 -57 -83 -82 64 -58 81 hvcurveto
            return
          </CharString>
          <CharString index="272">
            rmoveto
            456 -354 243 -565 vhcurveto
            -684 61 callsubr
            700 vlineto
            505 398 279 466 hvcurveto
            return
          </CharString>
          <CharString index="273">
            -65 hlineto
            89 -17 20 -25 -76 vvcurveto
            -655 vlineto
            -75 -20 -25 -89 -18 vhcurveto
            -63 687 63 vlineto
            -103 21 -21 25 80 vvcurveto
            return
          </CharString>
          <CharString index="274">
            44 16 48 hhcurveto
            61 43 -78 callgsubr
            65 hlineto
            200 51 82 65 84 vvcurveto
            89 -83 60 -119 vhcurveto
            return
          </CharString>
          <CharString index="275">
            rmoveto
            121 97 99 119 119 -97 99 -121 -120 -97 -99 -119 -119 97 -99 120 hvcurveto
            return
          </CharString>
          <CharString index="276">
            1327 rmoveto
            -126 136 -83 206 206 136 82 128 123 -136 85 -206 return
          </CharString>
          <CharString index="277">
            -938 -720 17 callgsubr
            1121 -738 rmoveto
            44 callsubr
            39 callgsubr
            return
          </CharString>
          <CharString index="278">
            16 48 hhcurveto
            79 39 -34 -41 -47 -39 -35 -83 -16 hvcurveto
            55 -36 rlineto
            173 24 84 55 99 vvcurveto
            93 return
          </CharString>
          <CharString index="279">
            -18 24 75 vvcurveto
            656 vlineto
            75 18 24 91 18 vhcurveto
            65 -650 -65 vlineto
            73 -16 13 -20 -74 vvcurveto
            return
          </CharString>
          <CharString index="280">
            1901 rmoveto
            -228 -103 -149 -145 -21 1 -21 3 -17 hvcurveto
            73 -36 callgsubr
            return
          </CharString>
          <CharString index="281">
            1496 rmoveto
            678 -111 0 60 -678 264 rlineto
            -1 -556 111 callsubr
            return
          </CharString>
          <CharString index="282">
            57 rmoveto
            -64 -36 75 265 266 32 71 63 64 36 -76 -265 -267 -32 -69 -63 hvcurveto
            return
          </CharString>
          <CharString index="283">
            -65 -147 -194 -129 vhcurveto
            24 -55 rlineto
            476 152 245 177 377 vvcurveto
            endchar
          </CharString>
          <CharString index="284">
            159 callsubr
            466 37 rmoveto
            254 67 117 97 50 39 180 callsubr
            return
          </CharString>
          <CharString index="285">
            73 hlineto
            85 30 34 51 31 27 -13 -26 44 vhcurveto
            29 -17 rlineto
            -36 58 52 -19 64 hhcurveto
            return
          </CharString>
          <CharString index="286">
            1116 rmoveto
            260 391 rlineto
            8 -356 vlineto
            13 -399 rlineto
            -250 25 rmoveto
            return
          </CharString>
          <CharString index="287">
            -29 -33 13 vhcurveto
            -615 vlineto
            -40 -16 -39 -30 -52 hhcurveto
            -93 -66 124 252 hvcurveto
            return
          </CharString>
          <CharString index="288">
            -76 vvcurveto
            -460 vlineto
            -228 133 -109 203 189 129 83 122 return
          </CharString>
          <CharString index="289">
            rmoveto
            -339 -92 -339 92 0 -63 316 -233 46 0 316 233 rlineto
            return
          </CharString>
          <CharString index="290">
            81 64 57 82 83 -64 58 -81 -80 -65 -58 -83 -82 64 -57 81 hvcurveto
            339 return
          </CharString>
          <CharString index="291">
            1132 rmoveto
            114 91 80 111 112 -91 79 -114 -114 return
          </CharString>
          <CharString index="292">
            289 -175 81 0 -237 399 -266 0 -236 -399 rlineto
            return
          </CharString>
          <CharString index="293">
            40 17 46 30 58 hhcurveto
            74 -37 callgsubr
            203 callsubr
            endchar
          </CharString>
          <CharString index="294">
            rmoveto
            269 158 269 -158 74 0 -219 360 -248 0 return
          </CharString>
          <CharString index="295">
            rmoveto
            77 60 50 69 70 -60 49 -77 -77 -61 -49 -70 -69 60 -50 78 hvcurveto
            return
          </CharString>
          <CharString index="296">
            -221 82 -186 143 -131 vhcurveto
            -132 -134 55 -56 137 141 rlineto
            -99 137 180 -57 210 hhcurveto
            481 322 325 427 221 -82 186 -143 130 hvcurveto
            130 134 -54 56 -137 -141 rlineto
            99 -137 -179 57 -210 hhcurveto
            104 callsubr
            hvcurveto
            40 callsubr
            123 88 -129 -223 41 vhcurveto
            -507 -520 rlineto
            -8 67 -3 73 80 vvcurveto
            543 -17 rmoveto
            -407 -80 -246 -186 -125 -87 129 224 -40 vhcurveto
            507 520 rlineto
            7 -67 4 -73 -80 vvcurveto
            endchar
          </CharString>
          <CharString index="297">
            1769 158 544 rmoveto
            -385 273 -184 370 364 217 223 345 3 vhcurveto
            8 842 rlineto
            -8 35 39 -4 37 hhcurveto
            146 103 66 118 116 -94 108 -165 49 hvcurveto
            -62 hlineto
            25 -26 19 -58 -60 vvcurveto
            -128 -1 -95 -114 -175 hhcurveto
            -63 -64 hlineto
            123 -23 20 -33 2 -148 8 -623 rcurveline
            -252 2 -125 -156 -198 hhcurveto
            -203 -127 125 284 hvcurveto
            685 vlineto
            91 26 27 119 24 vhcurveto
            63 -767 -63 vlineto
            109 -23 27 -28 -91 vvcurveto
            return
          </CharString>
          <CharString index="298">
            rmoveto
            359 258 219 316 154 -58 126 -100 90 hvcurveto
            101 95 -50 54 -110 -103 rlineto
            69 -105 -137 38 -156 hhcurveto
            -358 -258 -217 -316 -156 60 -128 102 -90 hvcurveto
            -95 -90 50 -54 105 99 rlineto
            -68 104 135 -38 153 hhcurveto
            -153 536 rmoveto
            282 45 161 105 78 51 -93 -174 20 vhcurveto
            -297 -278 rlineto
            -1 32 -1 34 36 vvcurveto
            158 -454 rmoveto
            -77 -50 89 169 -21 hvcurveto
            296 278 rlineto
            2 -30 0 -31 -33 vvcurveto
            -282 -45 -160 -105 vhcurveto
            endchar
          </CharString>
          <CharString index="299">
            rmoveto
            175 103 100 170 85 hvcurveto
            -176 40 90 -89 155 hhcurveto
            123 98 61 91 60 hvcurveto
            60 vlineto
            -11 -12 -20 -9 -26 hhcurveto
            -60 -57 41 204 -52 hvcurveto
            -21 82 227 516 rlineto
            -387 hlineto
            -13 -66 -17 -76 -20 -79 rrcurveto
            151 -75 -120 91 -194 hhcurveto
            -287 -199 -226 -326 -332 181 -177 223 hvcurveto
            59 562 rmoveto
            263 43 136 77 70 28 -69 -207 27 vhcurveto
            41 -312 rlineto
            -131 -47 -45 -58 -59 hhcurveto
            -86 -49 119 259 hvcurveto
            endchar
          </CharString>
          <CharString index="300">
            rmoveto
            106 81 38 65 19 hvcurveto
            -66 13 83 -34 82 hhcurveto
            63 58 14 20 30 hvcurveto
            40 vlineto
            -1 -5 -8 -1 -7 hhcurveto
            -27 -21 19 40 hvcurveto
            225 vlineto
            144 -110 64 -201 -196 -104 -72 -82 -56 48 -41 64 63 49 46 57 35 -19 31 -29 18 vhcurveto
            1 11 12 1 12 hhcurveto
            90 43 -37 -92 hvcurveto
            -49 vlineto
            -108 -20 rlineto
            -196 -34 -68 -63 -80 vvcurveto
            -78 66 -52 106 vhcurveto
            91 169 rmoveto
            55 28 39 66 16 vhcurveto
            15 3 rlineto
            -151 vlineto
            -21 -6 -20 -12 -27 hhcurveto
            -32 -24 23 48 hvcurveto
            endchar
          </CharString>
          <CharString index="301">
            rmoveto
            -283 168 -171 223 201 115 136 180 61 vhcurveto
            -184 39 112 -132 212 hhcurveto
            280 205 282 344 277 -102 156 -158 -171 -87 -183 -175 79 hvcurveto
            167 -19 111 -127 -157 vvcurveto
            -119 -67 -68 -98 -125 -76 108 266 vhcurveto
            240 -371 -245 vlineto
            -284 -45 -77 -83 -82 -44 99 191 202 52 203 115 102 vhcurveto
            -40 46 rlineto
            -377 -54 -214 -241 -313 vvcurveto
            endchar
          </CharString>
          <CharString index="302">
            hmoveto
            677 386 hlineto
            -146 61 -72 162 291 vvcurveto
            321 110 163 177 181 109 -171 -338 -274 -71 -143 -146 -74 vhcurveto
            -384 676 vlineto
            60 504 rlineto
            -51 hlineto
            -70 -172 -213 -70 -325 -4 rrcurveto
            78 vlineto
            377 31 256 219 305 vvcurveto
            302 -262 274 -519 -509 -273 -261 -322 1 vhcurveto
            -307 260 -224 373 -17 vhcurveto
            -78 vlineto
            -327 4 -211 69 -71 173 rrcurveto
            -51 hlineto
            return
          </CharString>
          <CharString index="303">
            rmoveto
            291 194 123 198 83 hvcurveto
            63 vlineto
            -66 -67 -128 -45 -137 -2 rrcurveto
            -137 -3 -86 39 72 vvcurveto
            72 74 37 147 vhcurveto
            57 hlineto
            -67 251 rlineto
            -41 hlineto
            -141 -66 45 69 69 72 50 151 57 52 -7 -12 44 hvcurveto
            -52 -20 -40 -50 -66 vvcurveto
            -81 55 -64 101 81 65 67 85 131 -133 107 -341 -333 -194 -117 -181 -163 138 -84 219 -11 vhcurveto
            -252 -17 -125 -87 -136 vvcurveto
            -168 188 -97 270 vhcurveto
            endchar
          </CharString>
          <CharString index="304">
            rmoveto
            -111 97 -83 117 177 112 120 255 133 vhcurveto
            425 823 78 153 35 33 100 22 rlinecurve
            63 -398 -63 vlineto
            134 -21 17 -32 -70 -155 rrcurveto
            -217 -460 -247 506 -56 115 4 30 119 17 rlinecurve
            63 -772 -63 vlineto
            88 -21 34 -34 66 -121 rrcurveto
            518 -957 -39 -67 -39 -49 -43 -31 rlinecurve
            7 20 3 23 25 vvcurveto
            105 -83 89 -108 -109 -83 -89 -105 vhcurveto
            endchar
          </CharString>
          <CharString index="305">
            215 -115 154 -162 75 hvcurveto
            -16 62 69 -10 69 hhcurveto
            154 111 67 119 1 hvcurveto
            1 113 -96 113 -168 50 rrcurveto
            -63 hlineto
            26 -27 18 -58 -62 vvcurveto
            -127 -1 -99 -104 -181 -80 -74 23 -101 hhcurveto
            -363 -251 -224 -311 -324 257 -202 363 hvcurveto
            6 83 rmoveto
            -100 -53 159 296 282 42 159 101 101 51 -158 -297 -282 -41 -159 -101 hvcurveto
            return
          </CharString>
          <CharString index="306">
            rmoveto
            121 99 68 95 32 hvcurveto
            62 vlineto
            -14 -11 -20 -9 -26 hhcurveto
            -76 -68 109 119 9 1 12 2 9 hvcurveto
            334 21 235 213 300 vvcurveto
            -104 callsubr
            -313 240 -198 342 -14 vhcurveto
            -116 -68 -77 -91 -101 vvcurveto
            -115 99 -84 132 vhcurveto
            6 541 rmoveto
            -100 -53 158 296 282 42 160 101 100 52 -158 -296 -282 -41 -160 -101 hvcurveto
            endchar
          </CharString>
          <CharString index="307">
            469 hlineto
            9 -12 751 0 vhcurveto
            51 19 45 31 61 hhcurveto
            86 48 -62 -150 -289 -4 -321 -13 -480 hvcurveto
            470 hlineto
            -5 1104 rlineto
            274 -1 -133 121 -224 hhcurveto
            -197 -133 -101 -133 -32 hvcurveto
            142 -17 -80 91 -161 hhcurveto
            -123 -107 -56 -62 -57 hvcurveto
            -60 vlineto
            6 9 17 3 19 hhcurveto
            63 25 -39 -106 -1 hvcurveto
            -70 -17 -401 -14 -253 vhcurveto
            endchar
          </CharString>
          <CharString index="308">
            47 vhcurveto
            -197 vlineto
            571 59 0 60 -50 16 rlineto
            -60 21 -10 16 76 vvcurveto
            720 vlineto
            -3 19 20 -1 22 hhcurveto
            121 99 62 117 hvcurveto
            1 113 -103 107 -178 44 rrcurveto
            -64 hlineto
            24 -24 20 -53 -65 vvcurveto
            -147 -109 -96 -303 -30 vhcurveto
            -139 -14 0 -61 45 -14 rlineto
            61 -22 10 -16 -76 vvcurveto
            -548 vlineto
            -40 -19 -43 -28 -57 hhcurveto
            -80 -45 51 102 hvcurveto
            return
          </CharString>
          <CharString index="309">
            rmoveto
            734 vlineto
            225 -19 0 116 -225 -19 rlineto
            228 vlineto
            137 59 53 91 1 vhcurveto
            -46 -22 -31 -47 -56 vvcurveto
            -84 64 -59 81 79 64 60 83 129 -108 100 -239 -272 -193 -149 -297 vhcurveto
            -63 vlineto
            -112 -51 rlineto
            -60 110 -723 vlineto
            -75 -20 -25 -90 -18 vhcurveto
            -63 688 63 vlineto
            -103 21 -22 25 80 vvcurveto
            endchar
          </CharString>
          <CharString index="310">
            -73 -17 vhcurveto
            -63 627 63 vlineto
            -72 17 -14 20 75 vvcurveto
            551 vlineto
            24 -2 20 -4 21 vhcurveto
            42 19 46 27 59 hhcurveto
            76 -37 callgsubr
            -72 46 callsubr
            -19 24 75 vvcurveto
            530 vlineto
            217 -131 111 -208 -190 -134 -87 -120 -43 vhcurveto
            134 -33 -125 73 -167 hhcurveto
            -188 -132 -86 -119 -43 hvcurveto
            return
          </CharString>
          <CharString index="311">
            98 -105 70 -162 -180 -117 -92 -136 -39 vhcurveto
            37 -22 rlineto
            65 30 59 36 76 hhcurveto
            79 39 -38 -55 -67 -68 -46 -139 -11 hvcurveto
            -48 vlineto
            1 11 19 1 14 hhcurveto
            102 75 -66 -97 -87 -61 -56 -87 -31 -28 8 14 -23 hvcurveto
            50 5 37 40 48 vvcurveto
            54 -45 40 -55 -61 -42 -43 -54 -97 110 -87 176 vhcurveto
            endchar
          </CharString>
          <CharString index="312">
            99 -105 70 -162 -180 -117 -93 -136 -39 vhcurveto
            37 -21 rlineto
            65 30 59 36 76 hhcurveto
            79 39 -39 -55 -67 -68 -46 -139 -11 hvcurveto
            -48 vlineto
            1 11 19 2 14 hhcurveto
            102 75 -66 -97 -88 -61 -56 -87 -31 -28 9 13 -23 hvcurveto
            50 6 37 40 48 vvcurveto
            54 -45 39 -55 -61 -42 -43 -54 -97 110 -86 176 vhcurveto
            return
          </CharString>
          <CharString index="313">
            1347 -745 rmoveto
            10 474 rlineto
            -61 hlineto
            -72 -295 -101 -83 -299 -16 rrcurveto
            -160 -7 691 1310 rlineto
            61 -1191 vlineto
            -12 -442 rlineto
            61 hlineto
            61 261 96 85 290 16 rrcurveto
            160 7 -692 -1310 rlineto
            -61 vlineto
            -663 720 -54 callgsubr
            45 callgsubr
            endchar
          </CharString>
          <CharString index="314">
            742 vlineto
            377 356 137 288 hvcurveto
            -543 652 rmoveto
            -190 -91 -82 -152 -5 vhcurveto
            -75 -1 0 572 35 -1 rlineto
            188 -7 95 -115 -171 vvcurveto
            33 -668 rmoveto
            -200 -108 -127 -208 -8 vhcurveto
            -35 -1 0 653 75 -3 rlineto
            182 -6 94 -135 -173 vvcurveto
            return
          </CharString>
          <CharString index="315">
            -111 23 -20 33 -1 152 rrcurveto
            -4 973 373 -1245 273 0 116 463 234 780 24 -1040 2 -91 -28 -29 -104 -20 rlinecurve
            -63 748 63 vlineto
            -110 21 -23 29 -3 93 rrcurveto
            -29 1032 -2 93 27 30 107 20 rlinecurve
            63 vlineto
            -660 2 -237 -907 rlineto
            return
          </CharString>
          <CharString index="316">
            16 76 vvcurveto
            -4 500 201 -646 168 0 68 268 rlineto
            -21 1 21 hlineto
            120 380 12 -533 rlineto
            -48 -14 -15 -60 -10 vhcurveto
            -43 441 43 vlineto
            -63 10 -13 16 -1 49 rrcurveto
            -16 527 -1 51 16 14 62 11 rlinecurve
            42 vlineto
            -397 1 -121 -449 rlineto
            return
          </CharString>
          <CharString index="317">
            -425 302 -296 459 -20 vhcurveto
            -111 -51 -77 -94 -106 vvcurveto
            -122 100 -84 135 132 104 73 107 31 vhcurveto
            -1 61 rlineto
            -17 -14 -25 -11 -34 hhcurveto
            -77 -73 81 109 20 3 19 5 14 hvcurveto
            455 21 301 317 413 vvcurveto
            -101 callsubr
          </CharString>
          <CharString index="318">
            389 -1152 372 0 389 1128 67 196 35 36 100 22 rlinecurve
            63 -419 -63 vlineto
            131 -23 22 -41 -55 -187 rrcurveto
            -249 -826 -258 831 -56 182 26 42 125 22 rlinecurve
            63 -813 -63 vlineto
            101 -22 37 -40 56 -168 rrcurveto
            return
          </CharString>
          <CharString index="319">
            76 19 25 91 17 vhcurveto
            65 -643 -65 vlineto
            68 -15 12 -20 -75 vvcurveto
            -768 -219 768 vlineto
            75 12 21 67 14 vhcurveto
            65 -613 -65 vlineto
            68 -14 12 -21 -75 vvcurveto
            -768 -219 768 vlineto
            75 12 20 67 15 vhcurveto
            65 -642 -65 vlineto
            56 callgsubr
            return
          </CharString>
          <CharString index="320">
            288 -783 296 0 277 738 62 170 29 29 77 17 rlinecurve
            65 -347 -65 vlineto
            108 -15 7 -35 -46 -159 rrcurveto
            -126 -421 -120 418 -44 161 6 38 113 13 rlinecurve
            65 -727 -65 vlineto
            75 -17 27 -32 45 -122 rrcurveto
            return
          </CharString>
          <CharString index="321">
            rmoveto
            357 261 218 318 326 -257 199 -360 -357 -262 -216 -319 -326 259 -200 359 hvcurveto
            6 83 rmoveto
            -100 -50 158 297 283 41 158 99 99 50 -157 -299 -283 -40 -157 -99 hvcurveto
            endchar
          </CharString>
          <CharString index="322">
            rmoveto
            299 vlineto
            57 -1 217 -473 rlineto
            516 61 hlineto
            -56 24 -34 48 -101 223 rrcurveto
            -197 425 143 127 72 27 103 19 rlinecurve
            65 -425 -65 vlineto
            115 -21 8 -46 -99 -94 rrcurveto
            -260 -243 -59 -1 rlineto
            295 126 callsubr
          </CharString>
          <CharString index="323">
            1544 rmoveto
            213 150 106 145 85 -59 63 -86 -83 -62 -64 -80 -67 49 -57 63 -11 hvcurveto
            -29 -50 -64 -18 -71 hhcurveto
            -72 -64 18 29 -49 hvcurveto
            62 11 49 57 67 vvcurveto
            80 -62 64 -83 -86 -59 -63 -85 -145 151 -106 213 vhcurveto
            return
          </CharString>
          <CharString index="324">
            rmoveto
            211 149 117 169 174 -147 107 -212 -211 -150 -117 -169 -173 148 -108 212 hvcurveto
            3 53 rmoveto
            -52 -27 80 153 146 21 81 53 52 26 -79 -154 -145 -21 -82 -52 hvcurveto
            endchar
          </CharString>
          <CharString index="325">
            665 299 rmoveto
            -6 -381 rlineto
            61 hlineto
            54 216 67 74 191 14 rrcurveto
            83 5 -473 -889 rlineto
            -58 961 vlineto
            4 397 rlineto
            -61 hlineto
            -45 -228 -75 -83 -198 -12 rrcurveto
            -94 -4 472 891 rlineto
            58 vlineto
            endchar
          </CharString>
          <CharString index="326">
            1588 1526 425 rmoveto
            234 -204 124 -305 9 vhcurveto
            236 8 217 99 203 vvcurveto
            231 -255 111 -422 vhcurveto
            -742 -9 callsubr
            -62 callsubr
            207 callsubr
            return
          </CharString>
          <CharString index="327">
            -73 hlineto
            -96 -1 -34 -39 -57 hhcurveto
            -35 -30 14 30 -49 hvcurveto
            -32 21 rlineto
            41 -65 -58 21 -70 hhcurveto
            -138 -95 -105 -250 20 hvcurveto
            73 hlineto
            99 1 34 38 56 hhcurveto
            36 30 -14 -31 48 hvcurveto
            33 -21 rlineto
            -40 65 57 -21 69 hhcurveto
            return
          </CharString>
          <CharString index="328">
            1488 440 rmoveto
            283 -267 154 -389 vhcurveto
            -167 345 hlineto
            101 26 38 112 20 vhcurveto
            63 -752 54 callsubr
            -62 callsubr
            785 vlineto
            411 241 163 277 hvcurveto
            return
          </CharString>
          <CharString index="329">
            459 vlineto
            112 -4 131 -7 39 -61 31 -155 rlinecurve
            57 528 -57 hlineto
            -31 -155 -38 -61 -132 -8 rrcurveto
            -112 -4 0 617 113 -6 264 -17 84 -85 57 -261 rlinecurve
            62 hlineto
            endchar
          </CharString>
          <CharString index="330">
            -479 rmoveto
            119 107 55 84 42 hvcurveto
            61 vlineto
            -14 -17 -30 -10 -33 hhcurveto
            -52 -44 32 71 83 56 82 115 80 hvcurveto
            -76 hlineto
            -297 -104 -115 -123 -114 vvcurveto
            -119 96 -64 129 vhcurveto
            endchar
          </CharString>
          <CharString index="331">
            1327 rmoveto
            -126 135 -83 207 206 135 82 128 123 -135 85 -206 -207 -40 callgsubr
            33 61 51 51 32 -60 -86 -90 -32 -58 -51 -51 -33 59 88 vhcurveto
            return
          </CharString>
          <CharString index="332">
            1533 rmoveto
            126 90 92 227 -17 hvcurveto
            -74 hlineto
            -84 -31 -34 -49 -32 -27 11 27 -43 vhcurveto
            -30 17 rlineto
            37 -59 -52 18 -64 hhcurveto
            -125 -89 -93 -226 7 callgsubr
            64 hhcurveto
            return
          </CharString>
          <CharString index="333">
            482 1466 rmoveto
            -222 -30 -199 -149 -222 vvcurveto
            -153 96 -101 134 145 87 117 151 vhcurveto
            -111 4 -72 65 95 vvcurveto
            91 66 55 95 16 vhcurveto
            return
          </CharString>
          <CharString index="334">
            -8 hhcurveto
            198 -51 -201 vlineto
            -325 -22 -187 -166 -253 vvcurveto
            -203 113 -146 235 -87 vhcurveto
            138 -51 9 -4 9 -3 8 -4 rlinecurve
            -397 vlineto
            -1 return
          </CharString>
          <CharString index="335">
            761 vlineto
            299 169 117 202 hvcurveto
            -626 236 rmoveto
            114 -8 54 -90 -142 vvcurveto
            -141 -60 -89 -110 -9 vhcurveto
            -38 -2 rlineto
            482 vlineto
            endchar
          </CharString>
          <CharString index="336">
            116 -18 18 -39 -73 -163 rrcurveto
            -194 -423 -213 432 -75 156 14 38 114 17 rlinecurve
            63 -780 -63 vlineto
            91 -23 34 -36 73 -136 rrcurveto
            return
          </CharString>
          <CharString index="337">
            -400 rlineto
            60 hlineto
            50 237 88 68 199 19 12 1 rcurveline
            -1147 vlineto
            -101 -26 -38 -113 -20 vhcurveto
            -63 754 63 vlineto
            -105 23 -23 27 94 vvcurveto
            return
          </CharString>
          <CharString index="338">
            249 142 108 158 -109 463 -227 hlineto
            -365 -492 rlineto
            -129 344 vlineto
            -1 158 rmoveto
            -228 hlineto
            229 340 rlineto
            endchar
          </CharString>
          <CharString index="339">
            1362 1285 hmoveto
            10 474 rlineto
            -62 hlineto
            -71 -295 -101 -83 -299 -16 rrcurveto
            -161 -7 691 1310 rlineto
            61 -16 callgsubr
            return
          </CharString>
        <CharString name=".notdef">
          2048 126 -494 rmoveto
          158 2444 -158 hlineto
          -63 callgsubr
          409 -2444 rmoveto
          158 2444 -158 hlineto
          -63 callgsubr
          -63 callgsubr
          endchar
        </CharString>
        <CharString name=".null">
          0 endchar
        </CharString>
        <CharString name="A">
          1534 1351 293 -100 callsubr
        </CharString>
        <CharString name="AE">
          1934 1840 1444 151 callsubr
        </CharString>
        <CharString name="AEacute">
          1934 1111 -12 callsubr
          809 -78 151 callsubr
        </CharString>
        <CharString name="AEmacron">
          1934 858 -37 callsubr
          982 -309 151 callsubr
        </CharString>
        <CharString name="Aacute">
          1534 690 -12 callsubr
          741 -1229 -100 callsubr
        </CharString>
        <CharString name="Abreve">
          1534 763 77 callsubr
          -72 -10 callsubr
          -11 callsubr
          33 callsubr
          588 -1255 -100 callsubr
        </CharString>
        <CharString name="Abreveacute">
          1534 1111 1883 -35 callsubr
          348 -257 -27 callsubr
          -8 hvcurveto
          -76 96 callsubr
          588 -1239 -100 callsubr
        </CharString>
        <CharString name="Abrevecyrillic">
          1534 763 1544 rmoveto
          12 callgsubr
          -49 -65 -18 callgsubr
          588 -1251 -100 callsubr
        </CharString>
        <CharString name="Abrevedotbelow">
          1534 763 77 callsubr
          -72 -10 callsubr
          -11 callsubr
          33 callsubr
          588 -1255 rmoveto
          -3 callsubr
          74 callsubr
          -87 -677 83 callsubr
        </CharString>
        <CharString name="Abrevegrave">
          1534 415 1883 -44 callgsubr
          348 -532 -27 callsubr
          -8 hvcurveto
          -76 96 callsubr
          588 -1239 -100 callsubr
        </CharString>
        <CharString name="Abrevehookabove">
          1534 752 2042 rmoveto
          -100 -80 -40 -58 -45 hvcurveto
          -39 vlineto
          16 26 52 13 50 hhcurveto
          80 40 -29 -36 -38 -40 -30 -86 -14 hvcurveto
          56 -30 rlineto
          179 20 85 47 84 vvcurveto
          80 -90 54 -127 vhcurveto
          11 -510 -27 callsubr
          -8 hvcurveto
          -76 96 callsubr
          588 -1239 -100 callsubr
        </CharString>
        <CharString name="Abrevetilde">
          1534 900 1828 rmoveto
          137 78 76 136 -4 hvcurveto
          -75 hlineto
          -49 -1 -28 -21 -58 hhcurveto
          -33 -35 7 11 -43 hvcurveto
          -44 11 rlineto
          14 -56 -54 13 -57 hhcurveto
          -137 -77 -76 -136 3 hvcurveto
          75 hlineto
          49 1 28 21 58 hhcurveto
          33 35 -7 -11 43 hvcurveto
          44 -12 rlineto
          -14 56 54 -12 57 hhcurveto
          -137 -296 -27 callsubr
          -8 hvcurveto
          -76 96 callsubr
          588 -1239 -100 callsubr
        </CharString>
        <CharString name="Acaron">
          1534 1055 1851 rmoveto
          -273 -130 27 callsubr
          218 -1558 -100 callsubr
        </CharString>
        <CharString name="Acircumflex">
          1534 510 50 callsubr
          93 callsubr
          -268 0 -217 -308 rlineto
          919 -1229 -100 callsubr
        </CharString>
        <CharString name="Acircumflexacute">
          1534 1111 1864 -35 callsubr
          -273 vmoveto
          34 callsubr
          937 -1257 -100 callsubr
        </CharString>
        <CharString name="Acircumflexdotbelow">
          1534 510 50 callsubr
          93 callsubr
          -268 0 -217 -308 rlineto
          919 -1229 rmoveto
          -3 callsubr
          74 callsubr
          -87 -677 83 callsubr
        </CharString>
        <CharString name="Acircumflexgrave">
          1534 415 1864 -44 callgsubr
          -548 vmoveto
          34 callsubr
          937 -1257 -100 callsubr
        </CharString>
        <CharString name="Acircumflexhookabove">
          1534 1061 1983 rmoveto
          -95 -75 -41 -59 -44 65 callgsubr
          171 19 81 29 callgsubr
          937 -1257 -100 callsubr
        </CharString>
        <CharString name="Acircumflextilde">
          1534 900 50 callgsubr
          -28 -22 -58 hhcurveto
          -33 -35 7 92 callgsubr
          -77 -75 -137 3 hvcurveto
          75 hlineto
          49 1 28 22 58 hhcurveto
          33 35 -7 -11 43 hvcurveto
          44 34 callgsubr
          937 -1257 -100 callsubr
        </CharString>
        <CharString name="Acyrillic">
          1534 1351 293 -100 callsubr
        </CharString>
        <CharString name="Adblgrave">
          1534 629 -20 callgsubr
          325 -1229 -100 callsubr
        </CharString>
        <CharString name="Adieresis">
          1534 578 88 callsubr
          -86 15 callsubr
          142 callsubr
          403 -1237 -100 callsubr
        </CharString>
        <CharString name="Adieresismacron">
          1534 414 -6 callgsubr
          -14 hlineto
          -71 -72 callsubr
          -7 callsubr
          -32 callsubr
          -15 hlineto
          -72 -72 callsubr
          72 hvcurveto
          416 -1253 -100 callsubr
        </CharString>
        <CharString name="Adotaccent">
          1534 763 -40 callsubr
          12 callsubr
          588 -1221 -100 callsubr
        </CharString>
        <CharString name="Adotbelow">
          1534 1351 293 rmoveto
          -3 callsubr
          74 callsubr
          -87 -677 83 callsubr
        </CharString>
        <CharString name="Adotmacron">
          1534 414 -5 callgsubr
          -61 -49 -70 -69 60 -50 77 hvcurveto
          588 -1243 -100 callsubr
        </CharString>
        <CharString name="Agrave">
          1534 875 1522 92 callsubr
          944 -1530 -100 callsubr
        </CharString>
        <CharString name="Ahookabove">
          1534 813 -49 callgsubr
          1 -46 rlineto
          20 23 167 callsubr
          538 -1585 -100 callsubr
        </CharString>
        <CharString name="Ainvertedbreve">
          1534 763 -76 callgsubr
          72 -36 callgsubr
          -51 callgsubr
          588 -1608 -100 callsubr
        </CharString>
        <CharString name="Alphagreek">
          1534 1351 293 -100 callsubr
        </CharString>
        <CharString name="Alphatonosgreek">
          1534 1351 293 rmoveto
          -3 callsubr
          813 63 vlineto
          -101 22 -35 40 -58 168 rrcurveto
          -1186 752 rmoveto
          301 -106 callgsubr
          312 -482 rmoveto
          177 578 182 -578 rlineto
          endchar
        </CharString>
        <CharString name="Amacron">
          1534 436 -48 callgsubr
          915 -1460 -100 callsubr
        </CharString>
        <CharString name="Aogonek">
          1534 1138 -480 rmoveto
          132 104 73 107 30 hvcurveto
          -1 61 rlineto
          -17 -13 -25 -11 -34 hhcurveto
          -77 -73 87 116 26 4 22 6 16 hvcurveto
          354 63 hlineto
          -101 22 -35 40 -58 168 rrcurveto
          -3 callsubr
          373 vlineto
          -116 -50 -86 -105 -119 vvcurveto
          -122 100 -84 135 vhcurveto
          -750 1043 rmoveto
          177 578 182 -578 rlineto
          endchar
        </CharString>
        <CharString name="Aring">
          1534 455 1724 rmoveto
          -114 123 -75 185 86 callgsubr
          -185 -123 -77 -112 vhcurveto
          232 hmoveto
          77 30 55 46 46 31 -55 -77 -80 -31 -51 -46 -46 -30 52 79 vhcurveto
          664 -1431 -100 callsubr
        </CharString>
        <CharString name="Aringacute">
          1534 1111 1866 -35 callsubr
          20 callgsubr
          -167 -113 -44 -66 -67 113 -43 167 hvcurveto
          45 42 rmoveto
          -20 hlineto
          -46 -25 27 41 41 26 26 45 hvcurveto
          20 hlineto
          44 27 -26 -41 -41 -27 -27 -44 hvcurveto
          578 -1278 -100 callsubr
        </CharString>
        <CharString name="Aringbelow">
          1534 1351 293 rmoveto
          -3 callsubr
          74 callsubr
          -428 -840 rmoveto
          -118 135 -76 206 207 135 75 119 115 -135 79 -207 -206 -135 -34 callgsubr
          50 51 33 -56 -79 -82 -33 -52 -51 -50 -33 53 81 vhcurveto
          endchar
        </CharString>
        <CharString name="Atilde">
          1534 894 87 callsubr
          145 callsubr
          -43 hvcurveto
          -29 131 callsubr
          178 callsubr
          457 -1240 -100 callsubr
        </CharString>
        <CharString name="B">
          1588 1526 425 119 callsubr
        </CharString>
        <CharString name="Bdotaccent">
          1588 765 -40 callsubr
          12 callsubr
          761 -1089 119 callsubr
        </CharString>
        <CharString name="Bdotbelow">
          219 callsubr
          -251 -523 83 callsubr
        </CharString>
        <CharString name="Becyrillic">
          1547 1492 418 rmoveto
          277 -272 141 -389 vhcurveto
          -167 533 hlineto
          176 -5 289 -8 89 -63 63 -247 rlinecurve
          62 hlineto
          -12 398 rlineto
          -1280 61 callsubr
          784 vlineto
          412 245 148 270 hvcurveto
          -510 2 rmoveto
          -202 -89 -131 -172 -10 vhcurveto
          -57 -2 0 684 57 -2 rlineto
          162 -9 99 -126 -202 vvcurveto
          endchar
        </CharString>
        <CharString name="Betagreek">
          1588 1526 425 119 callsubr
        </CharString>
        <CharString name="Blinebelow">
          219 callsubr
          -589 -781 -83 callsubr
        </CharString>
        <CharString name="C">
          1457 72 720 1 callsubr
          -26 callsubr
        </CharString>
        <CharString name="Cacute">
          1457 850 -80 callsubr
          -697 -802 1 callsubr
          -26 callsubr
        </CharString>
        <CharString name="Ccaron">
          1457 1214 -73 callsubr
          -19 callsubr
          52 callsubr
          -1221 -1131 1 callsubr
          -26 callsubr
        </CharString>
        <CharString name="Ccedilla">
          1457 72 720 rmoveto
          -453 340 -265 457 -25 vhcurveto
          -131 -145 20 callsubr
          19 16 callsubr
          60 callsubr
          94 callsubr
          -17 callsubr
          91 callsubr
          57 58 rlineto
          180 169 35 55 84 hvcurveto
          -70 callgsubr
          -26 callsubr
        </CharString>
        <CharString name="Ccedillaacute">
          1457 850 -80 callsubr
          -697 -802 rmoveto
          -453 340 -265 457 -25 vhcurveto
          -131 -145 20 callsubr
          19 16 callsubr
          60 callsubr
          94 callsubr
          -17 callsubr
          91 callsubr
          57 58 rlineto
          180 169 35 55 84 hvcurveto
          -70 callgsubr
          -26 callsubr
        </CharString>
        <CharString name="Ccircumflex">
          1457 669 -41 callsubr
          -50 callsubr
          -519 -802 1 callsubr
          -26 callsubr
        </CharString>
        <CharString name="Cdotaccent">
          1457 923 -63 callsubr
          56 callsubr
          -851 -794 1 callsubr
          -26 callsubr
        </CharString>
        <CharString name="Checyrillic">
          1722 1543 206 rmoveto
          1032 vlineto
          91 25 28 104 24 vhcurveto
          63 -732 -63 vlineto
          95 -19 22 -28 -89 vvcurveto
          -529 vlineto
          -23 -45 -67 -15 -74 hhcurveto
          -146 -86 82 199 hvcurveto
          286 vlineto
          89 22 28 95 19 vhcurveto
          63 -720 -63 vlineto
          94 -19 22 -28 -89 vvcurveto
          -248 vlineto
          -301 219 -140 299 167 140 32 45 80 vhcurveto
          -421 vlineto
          -95 -26 -33 -117 -21 vhcurveto
          -63 758 63 vlineto
          -104 24 -25 28 91 vvcurveto
          endchar
        </CharString>
        <CharString name="Chigreek">
          1499 274 307 64 callsubr
        </CharString>
        <CharString name="D">
          1716 43 callsubr
          endchar
        </CharString>
        <CharString name="Dbar">
          1716 51 703 rmoveto
          127 -497 hlineto
          -91 -23 -28 -104 -24 vhcurveto
          -63 700 vlineto
          505 398 279 466 456 -354 243 -565 hvcurveto
          -684 -9 callsubr
          -461 -127 vlineto
          1068 -57 -54 callgsubr
          rlineto
          630 225 74 -225 594 vlineto
          34 -1 rlineto
          271 -9 149 -274 -367 vvcurveto
          endchar
        </CharString>
        <CharString name="Dcaron">
          1716 1111 -73 callsubr
          27 callsubr
          464 -1106 128 callsubr
          endchar
        </CharString>
        <CharString name="Dcircumflexbelow">
          1716 43 callsubr
          -655 -1177 42 callsubr
          -219 360 -248 0 -220 -360 rlineto
          endchar
        </CharString>
        <CharString name="Dcommaaccent">
          1716 43 callsubr
          -400 -1186 -49 callsubr
          9 callsubr
          17 8 139 callsubr
          -61 -51 99 callsubr
          45 88 -40 108 hhcurveto
          endchar
        </CharString>
        <CharString name="Ddotaccent">
          1716 820 -63 callsubr
          56 callsubr
          834 -769 128 callsubr
          endchar
        </CharString>
        <CharString name="Ddotbelow">
          1716 43 callsubr
          -386 -834 -14 callsubr
          8 callsubr
        </CharString>
        <CharString name="Decyrillic">
          1522 1495 80 rmoveto
          -170 1142 hlineto
          101 27 38 112 20 vhcurveto
          63 -1289 -63 vlineto
          139 -18 47 -49 -2 -144 rrcurveto
          -3 -92 -10 -458 -45 -332 -149 -208 rlinecurve
          -136 hlineto
          -10 -469 rlineto
          61 hlineto
          290 64 93 99 303 hhcurveto
          452 hlineto
          311 89 -100 -289 65 hvcurveto
          61 hlineto
          -666 469 rmoveto
          -580 hlineto
          135 216 42 316 10 466 5 286 rcurveline
          388 hlineto
          endchar
        </CharString>
        <CharString name="Deltagreek">
          1417 32 hmoveto
          1353 254 hlineto
          -491 1191 -371 0 -491 -1191 rlineto
          114 38 rmoveto
          369 873 336 -873 rlineto
          endchar
        </CharString>
        <CharString name="Djecyrillic">
          1858 -39 callsubr
          230 callsubr
          470 vlineto
          20 34 52 15 55 hhcurveto
          149 89 -120 -263 1 hvcurveto
          -286 -85 -240 -204 -129 vhcurveto
          30 -53 rlineto
          430 116 315 243 368 vvcurveto
          308 -219 179 -303 -157 -127 -37 -39 -60 vhcurveto
          610 77 callgsubr
        </CharString>
        <CharString name="Dlinebelow">
          1716 43 callsubr
          -724 -1092 -83 callsubr
        </CharString>
        <CharString name="Dzecyrillic">
          1358 620 -25 112 callsubr
          endchar
        </CharString>
        <CharString name="Dzhecyrillic">
          1753 1574 1238 rmoveto
          91 25 28 103 24 vhcurveto
          63 -732 -63 vlineto
          96 -21 22 -28 -87 vvcurveto
          -1165 -423 1165 6 callsubr
          103 -24 24 -28 -91 vvcurveto
          -60 callsubr
          586 vlineto
          131 27 -44 -290 51 hvcurveto
          61 hlineto
          290 52 26 44 131 hhcurveto
          586 63 hlineto
          -103 24 -25 28 91 vvcurveto
          endchar
        </CharString>
        <CharString name="E">
          1359 1258 1444 -94 callsubr
        </CharString>
        <CharString name="Eacute">
          1359 671 -80 callsubr
          668 -78 -94 callsubr
        </CharString>
        <CharString name="Ebreve">
          1359 743 -53 callgsubr
          -1 20 -3 18 hvcurveto
          -73 -10 callsubr
          -11 callsubr
          33 callsubr
          515 -104 -94 callsubr
        </CharString>
        <CharString name="Ecaron">
          1359 1035 -73 callsubr
          -19 callsubr
          268 0 217 309 rlineto
          145 -407 -94 callsubr
        </CharString>
        <CharString name="Ecedilla">
          1359 701 -466 rmoveto
          -17 callsubr
          91 callsubr
          72 74 rlineto
          9 538 vlineto
          -44 callsubr
          -16 callsubr
          -11 442 rlineto
          -13 callsubr
          642 vlineto
          -151 -168 20 callsubr
          19 16 callsubr
          60 callsubr
          94 callsubr
          endchar
        </CharString>
        <CharString name="Ecedillabreve">
          1359 743 -53 callgsubr
          -1 20 -3 18 hvcurveto
          -73 -10 callsubr
          -11 callsubr
          33 callsubr
          -42 -2014 rmoveto
          -17 callsubr
          91 callsubr
          72 74 rlineto
          9 538 vlineto
          -44 callsubr
          -16 callsubr
          -11 442 rlineto
          -13 callsubr
          642 vlineto
          -151 -168 20 callsubr
          19 16 callsubr
          60 callsubr
          94 callsubr
          endchar
        </CharString>
        <CharString name="Ecircumflex">
          1359 490 -41 callsubr
          -50 callsubr
          846 -78 -94 callsubr
        </CharString>
        <CharString name="Ecircumflexacute">
          1359 1091 1864 -35 callsubr
          1 -273 rmoveto
          347 78 348 -78 0 53 -324 198 -48 0 -324 -198 rlineto
          863 -106 -94 callsubr
        </CharString>
        <CharString name="Ecircumflexbelow">
          1359 1258 1444 rmoveto
          -13 callsubr
          1252 vlineto
          -44 callsubr
          -16 callsubr
          -816 -1459 42 callsubr
          85 callsubr
        </CharString>
        <CharString name="Ecircumflexdotbelow">
          1359 490 -41 callsubr
          -50 callsubr
          846 -78 rmoveto
          -13 callsubr
          1252 vlineto
          -44 callsubr
          -16 callsubr
          -547 -1116 -14 callsubr
          8 callsubr
        </CharString>
        <CharString name="Ecircumflexgrave">
          1359 396 1864 -43 callgsubr
          -548 vmoveto
          347 78 348 -78 0 53 -324 198 -48 0 -324 -198 rlineto
          863 -106 -94 callsubr
        </CharString>
        <CharString name="Ecircumflexhookabove">
          1359 1042 1983 rmoveto
          -96 -75 -41 -59 -43 hvcurveto
          -37 vlineto
          14 25 49 14 47 hhcurveto
          78 37 -46 callgsubr
          171 19 81 48 84 vvcurveto
          80 -86 55 -122 vhcurveto
          -646 -486 rmoveto
          347 78 348 -78 0 53 -324 198 -48 0 -324 -198 rlineto
          863 -106 -94 callsubr
        </CharString>
        <CharString name="Ecircumflextilde">
          1359 880 50 callgsubr
          -27 -22 -59 hhcurveto
          -33 -35 7 11 -42 hvcurveto
          -45 11 rlineto
          15 -56 -54 12 -56 hhcurveto
          -138 -77 -75 -137 3 hvcurveto
          76 hlineto
          49 1 27 22 58 hhcurveto
          34 35 -7 -11 42 hvcurveto
          44 -12 rlineto
          -15 56 55 -11 56 hhcurveto
          -484 -312 rmoveto
          347 78 348 -78 0 53 -324 198 -48 0 -324 -198 rlineto
          863 -106 -94 callsubr
        </CharString>
        <CharString name="Ecyrillic">
          1467 72 720 1 callsubr
          -224 -126 296 337 -6 hvcurveto
          493 -17 0 115 -492 -16 rlineto
          364 12 134 243 208 hhcurveto
          -23 callgsubr
        </CharString>
        <CharString name="Edblgrave">
          1359 609 -20 callgsubr
          252 -78 -94 callsubr
        </CharString>
        <CharString name="Edieresis">
          1359 558 88 callsubr
          49 callsubr
          -105 callgsubr
          49 callsubr
          330 -86 -94 callsubr
        </CharString>
        <CharString name="Edotaccent">
          1359 743 -40 callsubr
          12 callsubr
          515 -70 -94 callsubr
        </CharString>
        <CharString name="Edotbelow">
          1359 1258 1444 rmoveto
          -13 callsubr
          1252 vlineto
          -44 callsubr
          -16 callsubr
          -547 -1116 -14 callsubr
          8 callsubr
        </CharString>
        <CharString name="Efcyrillic">
          2177 53 722 rmoveto
          -281 228 -199 584 -11 vhcurveto
          -33 vlineto
          -102 -26 -38 -112 -19 vhcurveto
          -64 725 64 vlineto
          -112 19 -25 38 102 vvcurveto
          33 vlineto
          584 11 226 188 289 vvcurveto
          282 -226 200 -584 12 vhcurveto
          33 vlineto
          102 25 38 112 19 vhcurveto
          64 -725 -64 vlineto
          112 -19 26 -38 -102 vvcurveto
          -33 vlineto
          -590 -10 -222 -190 -291 vvcurveto
          1562 1 rmoveto
          -218 -97 -172 -203 -26 vhcurveto
          830 vlineto
          216 -24 84 -170 -220 vvcurveto
          -1052 -2 rmoveto
          218 97 173 205 25 vhcurveto
          -830 vlineto
          -218 22 -84 170 222 vvcurveto
          endchar
        </CharString>
        <CharString name="Egrave">
          1359 856 1522 rmoveto
          79 hlineto
          -85 308 rlineto
          -463 -7 hlineto
          871 -379 -94 callsubr
        </CharString>
        <CharString name="Ehookabove">
          1359 793 79 callsubr
          44 16 48 hhcurveto
          61 43 -78 callgsubr
          65 hlineto
          201 51 82 65 84 vvcurveto
          89 -84 60 -119 vhcurveto
          465 -434 -94 callsubr
        </CharString>
        <CharString name="Einvertedbreve">
          1359 743 -76 callgsubr
          72 -36 callgsubr
          113 -60 -89 vhcurveto
          -1 73 vlineto
          3 18 1 20 21 vvcurveto
          145 -103 149 -228 vhcurveto
          515 -457 -94 callsubr
        </CharString>
        <CharString name="Elcyrillic">
          1573 9 callgsubr
          377 -1158 hlineto
          -93 -24 -27 -103 -23 vhcurveto
          -63 741 63 vlineto
          -104 23 -24 27 93 vvcurveto
          1032 vlineto
          93 24 27 104 23 vhcurveto
          63 -1267 46 callgsubr
          -12 -259 -49 53 callgsubr
          endchar
        </CharString>
        <CharString name="Emacron">
          1359 417 -37 callsubr
          841 -309 -94 callsubr
        </CharString>
        <CharString name="Emacronacute">
          1359 1091 1883 -35 callsubr
          -207 vmoveto
          697 147 -697 hlineto
          863 -285 -94 callsubr
        </CharString>
        <CharString name="Emacrongrave">
          1359 396 1883 -43 callgsubr
          -1 -482 -77 callgsubr
          863 -285 -94 callsubr
        </CharString>
        <CharString name="Emcyrillic">
          1923 711 1444 70 callsubr
        </CharString>
        <CharString name="Encyrillic">
          24 callsubr
          -76 callsubr
          -52 callsubr
          -34 callsubr
          endchar
        </CharString>
        <CharString name="Eogonek">
          1359 1048 -480 rmoveto
          131 105 73 107 30 hvcurveto
          -1 61 rlineto
          -17 -14 -25 -11 -34 hhcurveto
          -76 -73 87 116 26 4 22 5 16 hvcurveto
          203 hlineto
          -44 callsubr
          -39 -63 -134 14 callgsubr
          -11 442 rlineto
          -1207 -9 callsubr
          -60 callsubr
          964 vlineto
          -116 -50 -87 -105 -119 vvcurveto
          -122 101 -84 135 vhcurveto
          endchar
        </CharString>
        <CharString name="Epsilongreek">
          1359 1258 1444 -94 callsubr
        </CharString>
        <CharString name="Epsilontonosgreek">
          1766 1666 1444 rmoveto
          -13 callsubr
          1252 vlineto
          -44 callsubr
          -16 callsubr
          -1574 43 -24 callsubr
          endchar
        </CharString>
        <CharString name="Ercyrillic">
          1562 1500 1022 65 callsubr
        </CharString>
        <CharString name="Ereversedcyrillic">
          1471 102 62 rmoveto
          -53 87 179 -34 168 hhcurveto
          519 344 302 452 446 -350 294 -512 -194 -159 -36 -51 -80 hvcurveto
          -11 -372 rlineto
          61 hlineto
          226 51 125 147 178 hhcurveto
          207 138 -241 -365 10 hvcurveto
          -495 15 0 -115 495 15 rlineto
          -355 -9 -124 -276 -223 hhcurveto
          -167 -132 124 251 -56 hvcurveto
          -60 hlineto
          endchar
        </CharString>
        <CharString name="Escyrillic">
          1457 72 720 1 callsubr
          -26 callsubr
        </CharString>
        <CharString name="Etagreek">
          24 callsubr
          -76 callsubr
          -52 callsubr
          -34 callsubr
          endchar
        </CharString>
        <CharString name="Etatonosgreek">
          2172 1073 199 rmoveto
          498 434 -498 vlineto
          -89 -22 135 callsubr
          -76 callsubr
          22 -28 -89 vvcurveto
          -468 -434 10 callgsubr
          -34 callsubr
          -970 846 -24 callsubr
          endchar
        </CharString>
        <CharString name="Etilde">
          1359 874 1533 rmoveto
          126 89 92 227 -9 callgsubr
          -90 -93 -226 18 15 callgsubr
          384 -89 -94 callsubr
        </CharString>
        <CharString name="Etildebelow">
          1359 1258 1444 rmoveto
          -13 callsubr
          1252 vlineto
          -44 callsubr
          -16 callsubr
          -414 -1433 rmoveto
          129 89 93 224 -18 162 callsubr
          13 callgsubr
        </CharString>
        <CharString name="F">
          1281 1232 1444 rmoveto
          -1181 61 callsubr
          -107 callgsubr
          222 callsubr
        </CharString>
        <CharString name="Fdotaccent">
          1281 718 -40 callsubr
          12 callsubr
          514 -70 rmoveto
          -1181 61 callsubr
          -107 callgsubr
          222 callsubr
        </CharString>
        <CharString name="G">
          1610 72 712 -4 callsubr
        </CharString>
        <CharString name="Gacute">
          1610 849 -80 callsubr
          -696 -810 -4 callsubr
        </CharString>
        <CharString name="Gammagreek">
          1272 1223 1444 rmoveto
          -1172 -9 callsubr
          -60 callsubr
          752 11 callsubr
          1149 vlineto
          123 -5 250 -11 80 -62 56 -247 rlinecurve
          62 hlineto
          endchar
        </CharString>
        <CharString name="Gbreve">
          1610 921 -53 callgsubr
          -2 20 -2 18 hvcurveto
          -73 -10 callsubr
          -11 callsubr
          33 callsubr
          -849 -836 -4 callsubr
        </CharString>
        <CharString name="Gcaron">
          1610 1213 -73 callsubr
          -19 callsubr
          268 0 217 309 rlineto
          -1219 -1139 -4 callsubr
        </CharString>
        <CharString name="Gcircumflex">
          1610 668 -41 callsubr
          79 0 -217 308 -268 0 -217 -308 rlineto
          -518 -810 -4 callsubr
        </CharString>
        <CharString name="Gcommaaccent">
          1610 72 712 rmoveto
          -434 325 -303 509 223 220 46 87 126 vhcurveto
          426 vlineto
          84 22 29 94 14 vhcurveto
          64 -665 -64 vlineto
          100 -13 22 -29 -84 vvcurveto
          -439 vlineto
          -19 -18 -45 -16 -53 hhcurveto
          -212 -112 305 353 396 127 268 231 191 136 -213 -237 52 hvcurveto
          61 hlineto
          -7 454 rlineto
          53 -87 -173 29 -194 hhcurveto
          -484 -389 -255 -502 hvcurveto
          805 -1178 82 callsubr
          62 callsubr
          -6 callsubr
          55 -1 40 -20 -39 vvcurveto
          -38 95 callgsubr
          88 -40 109 hhcurveto
          endchar
        </CharString>
        <CharString name="Gdotaccent">
          1610 921 -40 callsubr
          12 callsubr
          -849 -802 -4 callsubr
        </CharString>
        <CharString name="Geacutecyrillic">
          1272 572 -12 callsubr
          731 -78 rmoveto
          -1172 -9 callsubr
          -60 callsubr
          752 11 callsubr
          24 callgsubr
        </CharString>
        <CharString name="Gecyrillic">
          1272 1223 1444 rmoveto
          -1172 -9 callsubr
          -60 callsubr
          752 11 callsubr
          24 callgsubr
        </CharString>
        <CharString name="Germandbls">
          1678 665 hmoveto
          1371 vlineto
          128 -6 rlineto
          225 -13 101 -111 -143 vvcurveto
          -122 -69 -75 -122 -14 vhcurveto
          -324 vlineto
          210 -49 96 -126 -150 vvcurveto
          -110 -53 -65 -94 -125 -98 165 212 -34 vhcurveto
          -62 -392 hlineto
          -38 62 125 -33 148 hhcurveto
          260 253 140 290 247 -154 198 -248 60 hvcurveto
          223 12 126 90 139 vvcurveto
          171 -189 120 -447 vhcurveto
          -876 -63 hlineto
          103 -18 24 -28 -88 vvcurveto
          -1050 vlineto
          -88 -24 -28 -103 -18 vhcurveto
          -63 vlineto
          endchar
        </CharString>
        <CharString name="Geupturncyrillic">
          1246 1200 1364 rmoveto
          9 429 rlineto
          -61 hlineto
          -273 -77 -67 -76 -262 hhcurveto
          -691 -9 callsubr
          -60 callsubr
          752 11 callsubr
          1142 vlineto
          endchar
        </CharString>
        <CharString name="Gmacron">
          1610 595 -37 callsubr
          -523 -1041 -4 callsubr
        </CharString>
        <CharString name="H">
          24 callsubr
          -76 callsubr
          -52 callsubr
          -34 callsubr
          endchar
        </CharString>
        <CharString name="Hacyrillic">
          1499 274 307 64 callsubr
        </CharString>
        <CharString name="Hardsigncyrillic">
          1778 1730 440 rmoveto
          283 -268 154 -388 vhcurveto
          -167 345 hlineto
          101 25 38 113 20 vhcurveto
          63 -997 vlineto
          -11 -398 rlineto
          60 hlineto
          49 236 81 68 185 18 8 1 rcurveline
          -1153 vlineto
          -98 -25 -35 -110 -20 vhcurveto
          -63 792 vlineto
          411 242 163 277 hvcurveto
          -510 2 rmoveto
          -214 -82 -141 -176 -10 vhcurveto
          -55 -2 0 724 52 -1 rlineto
          158 -6 103 -131 -219 vvcurveto
          endchar
        </CharString>
        <CharString name="Hbar">
          24 callsubr
          818 128 74 -128 140 vlineto
          93 24 27 104 23 vhcurveto
          63 -732 -63 vlineto
          95 -19 23 -28 -89 vvcurveto
          -147 -435 147 6 callsubr
          104 -24 23 -28 -91 vvcurveto
          -140 -127 -74 127 -818 vlineto
          -91 -24 -28 -103 -24 vhcurveto
          -63 -34 callsubr
          578 vmoveto
          247 435 -247 vlineto
          endchar
        </CharString>
        <CharString name="Hbrevebelow">
          24 callsubr
          -76 callsubr
          -52 callsubr
          -34 callsubr
          216 -659 rmoveto
          1 callgsubr
        </CharString>
        <CharString name="Hcaron">
          1764 1173 1850 rmoveto
          -273 -130 27 callsubr
          -586 -1651 rmoveto
          84 callgsubr
          -76 callsubr
          -52 callsubr
          -34 callsubr
          endchar
        </CharString>
        <CharString name="Hcedilla">
          1764 391 -466 rmoveto
          151 125 70 126 120 -113 69 -131 -16 -15 -1 -2 -14 hvcurveto
          77 84 rlineto
          327 63 hlineto
          -95 20 -22 29 87 vvcurveto
          84 callgsubr
          -76 callsubr
          -52 callsubr
          325 vlineto
          -144 -168 1 -48 rlineto
          5 9 19 4 17 hhcurveto
          52 34 -23 -40 -41 -38 -23 60 callsubr
          -61 vlineto
          -63 40 92 -43 109 hhcurveto
          endchar
        </CharString>
        <CharString name="Hcircumflex">
          1764 628 1521 -32 callgsubr
          105 callsubr
          116 -1322 rmoveto
          84 callgsubr
          -76 callsubr
          -52 callsubr
          -34 callsubr
          endchar
        </CharString>
        <CharString name="Hdieresis">
          1764 696 1529 rmoveto
          98 callsubr
          15 callsubr
          142 callsubr
          -401 -1330 rmoveto
          84 callgsubr
          -76 callsubr
          -52 callsubr
          -34 callsubr
          endchar
        </CharString>
        <CharString name="Hdotaccent">
          1764 881 1513 rmoveto
          97 78 68 95 94 -78 67 -97 -97 -78 -67 -94 -95 78 -68 97 hvcurveto
          -216 -1314 rmoveto
          84 callgsubr
          -76 callsubr
          -52 callsubr
          -34 callsubr
          endchar
        </CharString>
        <CharString name="Hdotbelow">
          24 callsubr
          -76 callsubr
          -52 callsubr
          -34 callsubr
          216 -313 -42 callsubr
        </CharString>
        <CharString name="I">
          843 665 206 -95 callsubr
          -103 callsubr
          -91 callsubr
          -85 callsubr
          -84 callsubr
        </CharString>
        <CharString name="IAcyrillic">
          1580 111 1022 rmoveto
          -176 117 -107 168 -47 vhcurveto
          -213 -401 -89 -165 -30 -39 -56 -26 rlinecurve
          -61 508 vlineto
          322 639 rlineto
          76 -440 hlineto
          -87 -22 -28 -94 -21 vhcurveto
          -63 730 63 vlineto
          -103 24 -24 28 91 vvcurveto
          1031 vlineto
          92 24 28 103 23 vhcurveto
          64 -780 vlineto
          -454 -183 -176 -246 hvcurveto
          487 17 rmoveto
          194 100 125 169 11 vhcurveto
          47 2 0 -658 -52 1 rlineto
          -149 8 -115 121 196 vvcurveto
          endchar
        </CharString>
        <CharString name="IJ">
          1687 665 206 -95 callsubr
          -103 callsubr
          -60 callsubr
          -97 callgsubr
          843 99 -61 callgsubr
          24 -28 -91 vvcurveto
          -919 vlineto
          -389 176 callsubr
        </CharString>
        <CharString name="IJacute">
          1687 349 -75 callgsubr
          924 hmoveto
          466 302 rlineto
          7 -449 vlineto
          -97 -309 rlineto
          -448 -1316 -95 callsubr
          -103 callsubr
          -60 callsubr
          -97 callgsubr
          843 99 -61 callgsubr
          24 -28 -91 vvcurveto
          -919 vlineto
          -389 176 callsubr
        </CharString>
        <CharString name="IUcyrillic">
          2469 665 199 rmoveto
          498 137 vlineto
          -429 10 319 -293 471 hhcurveto
          478 318 325 427 440 -322 302 -478 -456 -310 -295 -397 -28 hvcurveto
          -139 468 hlineto
          87 22 29 95 20 vhcurveto
          63 -731 -63 vlineto
          -36 callsubr
          -34 callsubr
          941 -138 rmoveto
          -169 -100 256 414 407 75 245 181 169 101 -254 -415 -407 -77 -246 -180 hvcurveto
          endchar
        </CharString>
        <CharString name="Iacute">
          843 349 -75 callgsubr
          396 -1316 -95 callsubr
          -103 callsubr
          -91 callsubr
          -85 callsubr
          -84 callsubr
        </CharString>
        <CharString name="Ibreve">
          843 422 77 callsubr
          -72 -10 callsubr
          -11 callsubr
          62 callgsubr
          243 -1342 -95 callsubr
          -103 callsubr
          -91 callsubr
          -85 callsubr
          -84 callsubr
        </CharString>
        <CharString name="Icaron">
          843 713 -73 callsubr
          27 callsubr
          -127 -1645 -95 callsubr
          -103 callsubr
          -91 callsubr
          -85 callsubr
          -84 callsubr
        </CharString>
        <CharString name="Icircumflex">
          843 169 50 callsubr
          272 -129 -50 callsubr
          575 -1316 -95 callsubr
          -103 callsubr
          -91 callsubr
          -85 callsubr
          -84 callsubr
        </CharString>
        <CharString name="Icyrillic">
          843 665 206 -95 callsubr
          -103 callsubr
          -91 callsubr
          -85 callsubr
          -84 callsubr
        </CharString>
        <CharString name="Idblgrave">
          843 288 141 callsubr
          92 hlineto
          332 85 callgsubr
          -19 -1316 -95 callsubr
          -103 callsubr
          -91 callsubr
          -85 callsubr
          -84 callsubr
        </CharString>
        <CharString name="Idieresis">
          843 237 1530 rmoveto
          -66 callsubr
          370 hmoveto
          -66 callsubr
          58 -1324 -95 callsubr
          -103 callsubr
          -91 callsubr
          -85 callsubr
          -84 callsubr
        </CharString>
        <CharString name="Idieresisacute">
          843 769 1883 rmoveto
          181 vlineto
          58 callsubr
          175 -243 -22 callsubr
          -71 -72 callsubr
          -7 callsubr
          -32 callsubr
          -14 hlineto
          -72 -72 callsubr
          72 hvcurveto
          71 -1340 -95 callsubr
          -103 callsubr
          -91 callsubr
          -85 callsubr
          -84 callsubr
        </CharString>
        <CharString name="Idotaccent">
          843 422 -63 callsubr
          55 callsubr
          243 -1308 -95 callsubr
          -103 callsubr
          -91 callsubr
          -85 callsubr
          -84 callsubr
        </CharString>
        <CharString name="Idotbelow">
          843 665 206 -95 callsubr
          -103 callsubr
          -60 callsubr
          -97 callgsubr
          -235 -320 -14 callsubr
          -38 callgsubr
        </CharString>
        <CharString name="Iecyrillic">
          1359 1258 1444 -94 callsubr
        </CharString>
        <CharString name="Igrave">
          843 534 137 callsubr
          600 -1617 -95 callsubr
          -103 callsubr
          -91 callsubr
          -85 callsubr
          -84 callsubr
        </CharString>
        <CharString name="Ihookabove">
          843 471 79 callsubr
          -8 callgsubr
          194 -1672 -95 callsubr
          -103 callsubr
          -91 callsubr
          -85 callsubr
          -84 callsubr
        </CharString>
        <CharString name="Iicyrillic">
          1785 665 199 rmoveto
          87 vlineto
          455 749 rlineto
          -836 vlineto
          -89 -22 135 callsubr
          -76 callsubr
          22 -28 -89 vvcurveto
          -87 vlineto
          -455 -749 rlineto
          836 6 callsubr
          104 -24 23 -28 -91 vvcurveto
          -62 callsubr
          -34 callsubr
          endchar
        </CharString>
        <CharString name="Iinvertedbreve">
          843 422 173 callsubr
          -51 callgsubr
          243 -1695 -95 callsubr
          -103 callsubr
          -91 callsubr
          -85 callsubr
          -84 callsubr
        </CharString>
        <CharString name="Iishortcyrillic">
          1785 893 216 callsubr
          -228 -1345 rmoveto
          87 vlineto
          455 749 rlineto
          -836 vlineto
          -89 -22 135 callsubr
          -76 callsubr
          22 -28 -89 vvcurveto
          -87 vlineto
          -455 -749 rlineto
          836 6 callsubr
          104 -24 23 -28 -91 vvcurveto
          -62 callsubr
          -34 callsubr
          endchar
        </CharString>
        <CharString name="Imacron">
          843 95 -37 callsubr
          570 -1547 -95 callsubr
          -103 callsubr
          -91 callsubr
          -85 callsubr
          -84 callsubr
        </CharString>
        <CharString name="Iocyrillic">
          1359 558 88 callsubr
          49 callsubr
          -105 callgsubr
          49 callsubr
          330 -86 -94 callsubr
        </CharString>
        <CharString name="Iogonek">
          843 427 -480 rmoveto
          130 105 73 107 30 hvcurveto
          61 vlineto
          -17 -14 -26 -11 -34 hhcurveto
          -76 -72 87 116 26 3 22 6 16 hvcurveto
          314 63 hlineto
          -104 24 -24 28 91 vvcurveto
          1032 -8 callsubr
          -103 callsubr
          -60 callsubr
          341 vlineto
          -115 -50 -86 -105 -119 vvcurveto
          -122 100 -84 136 vhcurveto
          endchar
        </CharString>
        <CharString name="Iotadieresisgreek">
          843 237 1530 rmoveto
          -66 callsubr
          370 hmoveto
          -66 callsubr
          58 -1324 -95 callsubr
          -103 callsubr
          -91 callsubr
          -85 callsubr
          -84 callsubr
        </CharString>
        <CharString name="Iotagreek">
          843 665 206 -95 callsubr
          -103 callsubr
          -91 callsubr
          -85 callsubr
          -84 callsubr
        </CharString>
        <CharString name="Iotatonosgreek">
          1251 1073 206 rmoveto
          1032 vlineto
          91 23 28 105 24 vhcurveto
          63 -103 callsubr
          -91 callsubr
          -85 callsubr
          -105 24 -23 28 91 vvcurveto
          -970 839 -24 callsubr
          endchar
        </CharString>
        <CharString name="Itilde">
          843 553 1533 rmoveto
          125 90 92 227 -17 hvcurveto
          -74 hlineto
          -84 -31 -34 -49 -32 -27 11 27 -43 vhcurveto
          -30 17 rlineto
          37 -59 -52 18 -64 hhcurveto
          -125 -89 -93 -226 7 callgsubr
          65 hhcurveto
          112 -1327 -95 callsubr
          -103 callsubr
          -91 callsubr
          -85 callsubr
          -84 callsubr
        </CharString>
        <CharString name="Itildebelow">
          843 665 206 -95 callsubr
          -103 callsubr
          -60 callsubr
          -97 callgsubr
          -102 -637 rmoveto
          129 88 93 224 -17 162 callsubr
          68 hlineto
          88 1 32 34 52 hhcurveto
          33 28 -12 -27 44 hvcurveto
          32 -20 rlineto
          -36 60 53 -18 64 hhcurveto
          endchar
        </CharString>
        <CharString name="J">
          843 665 305 rmoveto
          933 -8 callsubr
          -103 callsubr
          73 callsubr
        </CharString>
        <CharString name="Jacute">
          843 350 -80 callsubr
          396 -1217 rmoveto
          933 -8 callsubr
          -103 callsubr
          73 callsubr
        </CharString>
        <CharString name="Jcircumflex">
          843 169 -41 callsubr
          -50 callsubr
          574 -1217 rmoveto
          933 -8 callsubr
          -103 callsubr
          73 callsubr
        </CharString>
        <CharString name="Jecyrillic">
          843 665 305 rmoveto
          933 -8 callsubr
          -103 callsubr
          73 callsubr
        </CharString>
        <CharString name="K">
          1593 665 199 23 callsubr
        </CharString>
        <CharString name="Kaacutecyrillic">
          1593 818 -80 callsubr
          -72 -1323 23 callsubr
        </CharString>
        <CharString name="Kacute">
          1593 818 -80 callsubr
          -72 -1323 23 callsubr
        </CharString>
        <CharString name="Kacyrillic">
          1593 665 199 23 callsubr
        </CharString>
        <CharString name="Kappagreek">
          1593 665 199 23 callsubr
        </CharString>
        <CharString name="Kcaron">
          1593 1182 -73 callsubr
          -19 callsubr
          268 0 218 309 rlineto
          -596 -1652 23 callsubr
        </CharString>
        <CharString name="Kcommaaccent">
          154 callsubr
          174 -665 rmoveto
          158 111 73 120 118 -102 67 -130 -104 -89 callgsubr
          139 callsubr
          -62 callgsubr
        </CharString>
        <CharString name="Kdotbelow">
          154 callsubr
          188 -313 -14 callsubr
          -38 callgsubr
        </CharString>
        <CharString name="Klinebelow">
          154 callsubr
          -150 -571 -83 callsubr
        </CharString>
        <CharString name="L">
          31 callsubr
          endchar
        </CharString>
        <CharString name="Lacute">
          1276 348 -12 callsubr
          962 -1522 rmoveto
          4 callsubr
          28 callsubr
          endchar
        </CharString>
        <CharString name="Lambdagreek">
          1539 1350 279 rmoveto
          -395 1166 -371 0 -389 -1147 -60 -177 -37 -37 -98 -21 rlinecurve
          -63 405 63 vlineto
          -129 22 -25 43 51 166 rrcurveto
          266 846 260 -850 50 -162 -24 -43 -130 -22 rlinecurve
          -63 815 63 vlineto
          -92 20 -43 37 -54 159 rrcurveto
          endchar
        </CharString>
        <CharString name="Lcaron">
          1276 1026 1157 rmoveto
          281 425 -302 0 -45 -425 rlineto
          270 -1157 rmoveto
          4 callsubr
          28 callsubr
          endchar
        </CharString>
        <CharString name="Lcircumflexbelow">
          31 callsubr
          386 -457 187 callsubr
          -220 -360 rlineto
          endchar
        </CharString>
        <CharString name="Lcommaaccent">
          31 callsubr
          641 -466 -49 callsubr
          9 callsubr
          -6 callsubr
          54 -1 40 -20 -39 vvcurveto
          -38 -91 callgsubr
          -96 callgsubr
        </CharString>
        <CharString name="Ldot">
          31 callsubr
          946 658 -7 callgsubr
          endchar
        </CharString>
        <CharString name="Ldotbelow">
          31 callsubr
          655 -114 -42 callsubr
        </CharString>
        <CharString name="Ldotbelowmacron">
          1276 94 -48 callgsubr
          1136 -1753 rmoveto
          4 callsubr
          28 callsubr
          655 -114 -42 callsubr
        </CharString>
        <CharString name="Ljecyrillic">
          2243 9 callgsubr
          353 -1158 hlineto
          -93 -23 -27 -104 -23 vhcurveto
          -63 786 vlineto
          411 241 163 277 283 -268 154 -387 hvcurveto
          -169 345 hlineto
          101 26 38 113 20 vhcurveto
          63 -1255 46 callgsubr
          -13 -259 -48 53 callgsubr
          1686 271 -33 callgsubr
          -57 -2 0 724 53 -1 rlineto
          158 -6 103 -131 -219 vvcurveto
          endchar
        </CharString>
        <CharString name="Llinebelow">
          31 callsubr
          317 -372 -83 callsubr
        </CharString>
        <CharString name="Lslash">
          1276 51 640 rmoveto
          127 31 rlineto
          -465 vlineto
          -91 -24 -28 -103 -24 vhcurveto
          -63 1179 vlineto
          4 callsubr
          rrcurveto
          -107 -6 0 714 295 70 0 79 -295 -70 rlineto
          364 vlineto
          96 25 34 113 21 vhcurveto
          63 -752 54 callsubr
          -487 vlineto
          -127 -31 rlineto
          endchar
        </CharString>
        <CharString name="M">
          1923 711 1444 70 callsubr
        </CharString>
        <CharString name="Macute">
          1923 877 -75 callgsubr
          -86 -78 70 callsubr
        </CharString>
        <CharString name="Mdotaccent">
          1923 950 -63 callsubr
          55 callsubr
          -239 -70 70 callsubr
        </CharString>
        <CharString name="Mdotbelow">
          1923 711 1444 rmoveto
          -660 -63 hlineto
          104 -18 28 -43 -3 -94 rrcurveto
          -32 -954 -7 -152 -20 -38 -104 -19 rlinecurve
          -63 384 64 vlineto
          208 callsubr
          -203 -653 -42 callsubr
        </CharString>
        <CharString name="Mugreek">
          1923 711 1444 70 callsubr
        </CharString>
        <CharString name="N">
          1500 -18 callsubr
          -2 callsubr
          endchar
        </CharString>
        <CharString name="Nacute">
          1500 720 -80 callsubr
          44 -78 -1 callsubr
          -2 callsubr
          endchar
        </CharString>
        <CharString name="Ncaron">
          1500 1084 -73 callsubr
          27 callsubr
          -480 -407 -1 callsubr
          -2 callsubr
          endchar
        </CharString>
        <CharString name="Ncircumflexbelow">
          1500 -18 callsubr
          -2 callsubr
          -832 -864 42 callsubr
          -219 360 -248 0 -220 -360 rlineto
          endchar
        </CharString>
        <CharString name="Ncommaaccent">
          1500 -18 callsubr
          -2 callsubr
          -577 -873 -49 callsubr
          9 callsubr
          17 8 139 callsubr
          -61 -51 99 callsubr
          45 88 -40 108 hhcurveto
          endchar
        </CharString>
        <CharString name="Ndotaccent">
          1500 793 -63 callsubr
          55 callsubr
          -110 -70 -1 callsubr
          -2 callsubr
          endchar
        </CharString>
        <CharString name="Ndotbelow">
          1500 -18 callsubr
          -2 callsubr
          -563 -521 -42 callsubr
        </CharString>
        <CharString name="Ngrave">
          1500 905 137 callsubr
          247 -379 -1 callsubr
          -2 callsubr
          endchar
        </CharString>
        <CharString name="Njecyrillic">
          2427 665 199 rmoveto
          543 404 -543 vlineto
          -87 -22 -29 -96 -20 vhcurveto
          -63 777 vlineto
          415 235 150 260 269 -271 143 -383 hvcurveto
          -169 400 hlineto
          101 25 38 113 20 vhcurveto
          63 -742 -63 vlineto
          96 -20 22 -29 -87 vvcurveto
          -424 -404 424 6 callsubr
          104 -24 23 -28 -91 vvcurveto
          -62 callsubr
          -34 callsubr
          1208 216 rmoveto
          -198 -82 -130 -178 -10 vhcurveto
          -58 -2 0 670 55 -2 rlineto
          159 -6 104 -119 -203 vvcurveto
          endchar
        </CharString>
        <CharString name="Nlinebelow">
          1500 -18 callsubr
          -2 callsubr
          -901 -779 -83 callsubr
        </CharString>
        <CharString name="Ntilde">
          1500 923 225 callsubr
          -240 -89 -1 callsubr
          -2 callsubr
          endchar
        </CharString>
        <CharString name="Nugreek">
          1500 -18 callsubr
          -2 callsubr
          endchar
        </CharString>
        <CharString name="O">
          18 callsubr
          80 callsubr
          -101 callsubr
        </CharString>
        <CharString name="OE">
          2164 72 723 rmoveto
          -466 389 -278 433 vhcurveto
          124 138 21 139 hhcurveto
          816 hlineto
          9 474 rlineto
          -60 hlineto
          -72 -290 -81 -90 -250 -15 rrcurveto
          -140 -6 0 628 115 -4 129 -7 39 -62 29 -156 rlinecurve
          58 530 -58 hlineto
          -30 -154 -37 -63 -130 -7 rrcurveto
          -115 -4 0 597 118 -6 256 -16 74 -87 62 -259 rlinecurve
          61 hlineto
          -12 441 rlineto
          -774 hlineto
          -137 -124 21 -133 hhcurveto
          -516 -320 -318 -424 hvcurveto
          511 -5 rmoveto
          400 119 262 239 33 31 -5 -11 26 vhcurveto
          -1286 vlineto
          -9 -29 -34 -4 -36 hhcurveto
          -207 -142 255 398 hvcurveto
          endchar
        </CharString>
        <CharString name="Oacute">
          1758 804 -80 callsubr
          -651 -804 -105 callsubr
          -101 callsubr
        </CharString>
        <CharString name="Obreve">
          1758 877 77 callsubr
          -73 -10 callsubr
          -140 -113 60 90 vhcurveto
          1 -73 vlineto
          -3 -18 -2 -20 -22 vvcurveto
          -145 104 -148 228 vhcurveto
          -805 -830 -105 callsubr
          -101 callsubr
        </CharString>
        <CharString name="Ocaron">
          1758 1168 -73 callsubr
          -19 callsubr
          52 callsubr
          -1175 -1133 -105 callsubr
          -101 callsubr
        </CharString>
        <CharString name="Ocircumflex">
          1758 623 -41 callsubr
          -50 callsubr
          -473 -804 -105 callsubr
          -101 callsubr
        </CharString>
        <CharString name="Ocircumflexacute">
          1758 1224 1864 rmoveto
          181 vlineto
          58 callsubr
          -273 vmoveto
          348 78 347 -78 0 53 -324 97 callsubr
          -456 -832 -105 callsubr
          -101 callsubr
        </CharString>
        <CharString name="Ocircumflexdotbelow">
          1758 623 -41 callsubr
          -50 callsubr
          -473 -804 -105 callsubr
          440 -327 302 -485 104 callsubr
          vhcurveto
          40 callsubr
          173 89 callsubr
          107 callsubr
          275 -845 95 callsubr
          45 callsubr
        </CharString>
        <CharString name="Ocircumflexgrave">
          1758 529 1864 -43 callgsubr
          -548 vmoveto
          348 78 347 -78 0 53 -324 97 callsubr
          -456 -832 -105 callsubr
          -101 callsubr
        </CharString>
        <CharString name="Ocircumflexhookabove">
          1758 1175 1983 rmoveto
          -95 -76 -41 -59 -43 hvcurveto
          -37 vlineto
          14 25 49 14 48 hhcurveto
          77 37 -46 callgsubr
          171 19 82 48 84 vvcurveto
          80 -87 55 -122 vhcurveto
          -646 -486 rmoveto
          348 78 347 -78 0 53 -324 97 callsubr
          -456 -832 -105 callsubr
          -101 callsubr
        </CharString>
        <CharString name="Ocircumflextilde">
          1758 1013 1809 rmoveto
          138 77 74 138 143 callsubr
          11 -42 hvcurveto
          -44 11 rlineto
          15 -57 -54 12 -56 hhcurveto
          -137 -78 -75 -137 4 hvcurveto
          75 hlineto
          49 1 -103 callgsubr
          -12 rlineto
          -15 56 54 -11 56 hhcurveto
          -484 -312 rmoveto
          348 78 347 -78 0 53 -324 97 callsubr
          -456 -832 -105 callsubr
          -101 callsubr
        </CharString>
        <CharString name="Ocyrillic">
          18 callsubr
          80 callsubr
          -101 callsubr
        </CharString>
        <CharString name="Odblgrave">
          1758 743 141 callsubr
          91 hlineto
          333 85 callgsubr
          -1067 -804 -105 callsubr
          -101 callsubr
        </CharString>
        <CharString name="Odieresis">
          1758 692 1530 rmoveto
          -66 callsubr
          370 hmoveto
          -66 callsubr
          -990 -812 -105 callsubr
          -101 callsubr
        </CharString>
        <CharString name="Odieresismacron">
          1758 528 1854 rmoveto
          697 146 -697 hlineto
          176 -454 rmoveto
          71 58 -32 callsubr
          -15 hlineto
          -71 -72 callsubr
          -7 callsubr
          -32 callsubr
          -15 hlineto
          -71 -72 callsubr
          71 hvcurveto
          -976 -828 -105 callsubr
          -101 callsubr
        </CharString>
        <CharString name="Odotaccent">
          1758 877 -63 callsubr
          56 callsubr
          -805 -796 -105 callsubr
          -101 callsubr
        </CharString>
        <CharString name="Odotaccentmacron">
          1758 528 1825 rmoveto
          697 148 -697 hlineto
          349 -437 188 callsubr
          -805 -818 -105 callsubr
          -101 callsubr
        </CharString>
        <CharString name="Odotbelow">
          18 callsubr
          80 callsubr
          440 -327 302 -485 104 callsubr
          vhcurveto
          40 callsubr
          173 89 callsubr
          107 callsubr
          275 -845 95 callsubr
          45 callsubr
        </CharString>
        <CharString name="Ograve">
          1758 989 137 callsubr
          -448 -1105 -105 callsubr
          -101 callsubr
        </CharString>
        <CharString name="Ohookabove">
          1758 926 79 callsubr
          45 16 47 hhcurveto
          62 42 -78 callgsubr
          66 hlineto
          200 51 82 65 84 vvcurveto
          89 -84 60 -119 vhcurveto
          -854 -1160 -105 callsubr
          -101 callsubr
        </CharString>
        <CharString name="Ohorn">
          1787 72 718 -105 callsubr
          134 callsubr
        </CharString>
        <CharString name="Ohornacute">
          1787 806 -12 callsubr
          -654 -804 -105 callsubr
          134 callsubr
        </CharString>
        <CharString name="Ohorndotbelow">
          1787 72 718 -105 callsubr
          156 callsubr
          40 callsubr
          173 89 callsubr
          107 callsubr
          274 -845 95 callsubr
          45 callsubr
        </CharString>
        <CharString name="Ohorngrave">
          1787 72 718 -105 callsubr
          156 callsubr
          919 804 92 callsubr
          85 -1092 rmoveto
          407 78 245 188 -58 callgsubr
        </CharString>
        <CharString name="Ohornhookabove">
          1787 929 -49 callgsubr
          -46 vlineto
          20 24 167 callsubr
          -857 -1160 -105 callsubr
          134 callsubr
        </CharString>
        <CharString name="Ohorntilde">
          1787 1010 87 callsubr
          145 callsubr
          -43 hvcurveto
          -29 131 callsubr
          72 hlineto
          85 1 30 34 51 hhcurveto
          31 27 -13 -26 44 hvcurveto
          29 -17 rlineto
          -36 58 52 -19 64 hhcurveto
          -938 -815 -105 callsubr
          134 callsubr
        </CharString>
        <CharString name="Ohungarumlaut">
          1758 647 1831 rmoveto
          22 -309 83 0 252 302 rlineto
          7 vlineto
          62 hmoveto
          -89 -309 94 0 391 302 rlineto
          7 vlineto
          -1390 -1113 -105 callsubr
          -101 callsubr
        </CharString>
        <CharString name="Oinvertedbreve">
          1758 876 -76 callgsubr
          73 1 hlineto
          91 112 58 141 141 113 -60 -89 vhcurveto
          -1 73 vlineto
          3 18 2 20 21 vvcurveto
          145 -104 149 -228 vhcurveto
          -804 -1183 -105 callsubr
          -101 callsubr
        </CharString>
        <CharString name="Omacron">
          1758 550 -37 callsubr
          -478 -1035 -105 callsubr
          -101 callsubr
        </CharString>
        <CharString name="Omacronacute">
          1758 1224 1883 rmoveto
          181 vlineto
          58 callsubr
          -1 -207 -77 callgsubr
          -456 -1011 -105 callsubr
          -101 callsubr
        </CharString>
        <CharString name="Omacrongrave">
          1758 529 1883 -43 callgsubr
          -1 -482 -77 callgsubr
          -456 -1011 -105 callsubr
          -101 callsubr
        </CharString>
        <CharString name="Omegagreek">
          1665 84 195 callsubr
          endchar
        </CharString>
        <CharString name="Omegatonosgreek">
          1882 301 195 callsubr
          -138 541 -24 callsubr
          endchar
        </CharString>
        <CharString name="Omicrongreek">
          18 callsubr
          80 callsubr
          -101 callsubr
        </CharString>
        <CharString name="Omicrontonosgreek">
          1897 211 718 rmoveto
          -440 325 -303 487 482 321 325 427 440 -326 302 -485 -483 -321 -324 -427 vhcurveto
          -108 327 -24 callsubr
          734 -314 rmoveto
          407 79 245 188 172 105 -254 -415 -407 -80 -246 -187 107 callsubr
          endchar
        </CharString>
        <CharString name="Oogonek">
          18 callsubr
          210 callsubr
        </CharString>
        <CharString name="Oogonekmacron">
          1758 550 -37 callsubr
          -478 -1035 rmoveto
          210 callsubr
        </CharString>
        <CharString name="Oslash">
          18 callsubr
          189 callsubr
        </CharString>
        <CharString name="Oslashacute">
          1758 804 -80 callsubr
          -651 -804 rmoveto
          189 callsubr
        </CharString>
        <CharString name="Otilde">
          1758 1007 1533 rmoveto
          126 89 92 227 -9 callgsubr
          -89 -93 -226 17 15 callgsubr
          -935 -815 -105 callsubr
          -101 callsubr
        </CharString>
        <CharString name="Otildeacute">
          1758 1224 1883 rmoveto
          181 vlineto
          51 callgsubr
          143 callsubr
          12 -42 hvcurveto
          -44 11 rlineto
          14 -57 -54 13 -56 86 callsubr
          -103 callgsubr
          -80 callgsubr
          -941 -839 -105 callsubr
          -101 callsubr
        </CharString>
        <CharString name="Otildedieresis">
          1758 704 1818 rmoveto
          71 58 44 64 66 -58 43 -71 hvcurveto
          -15 hlineto
          31 callgsubr
          -15 hlineto
          -71 -58 -43 -66 -64 58 -44 71 hvcurveto
          -35 -261 rmoveto
          138 77 75 137 143 callsubr
          12 -42 hvcurveto
          -44 11 rlineto
          14 -57 -54 13 -56 86 callsubr
          -103 callgsubr
          -80 callgsubr
          -941 -839 -105 callsubr
          -101 callsubr
        </CharString>
        <CharString name="Otildemacron">
          1758 528 1853 -77 callgsubr
          485 -443 rmoveto
          138 77 75 137 143 callsubr
          12 -42 hvcurveto
          -44 11 rlineto
          14 -57 -54 13 -56 86 callsubr
          -103 callgsubr
          -80 callgsubr
          -941 -839 -105 callsubr
          -101 callsubr
        </CharString>
        <CharString name="P">
          1562 1500 1022 65 callsubr
        </CharString>
        <CharString name="Pacute">
          1562 714 -80 callsubr
          867 -500 65 callsubr
        </CharString>
        <CharString name="Pdotaccent">
          1562 786 -40 callsubr
          12 callsubr
          714 -492 65 callsubr
        </CharString>
        <CharString name="Pecyrillic">
          1753 1574 206 rmoveto
          1032 vlineto
          91 25 28 103 24 vhcurveto
          63 -1651 54 callsubr
          -62 callsubr
          -39 callgsubr
          1165 423 -1165 vlineto
          -87 -22 -28 -96 -21 vhcurveto
          -63 732 63 vlineto
          -103 24 -25 28 91 vvcurveto
          endchar
        </CharString>
        <CharString name="Phigreek">
          2084 54 724 rmoveto
          -309 267 -197 495 -12 vhcurveto
          -3 -89 -28 -35 -106 -19 rrcurveto
          -63 726 63 vlineto
          -106 19 -29 35 -3 89 rrcurveto
          496 11 267 187 310 vvcurveto
          312 -284 196 -479 12 vhcurveto
          2 92 28 36 108 19 rrcurveto
          63 -726 -63 vlineto
          107 -19 28 -35 2 -93 rrcurveto
          -479 -11 -283 -185 -314 vvcurveto
          1488 1 rmoveto
          -244 -104 -174 -172 -26 vhcurveto
          878 vlineto
          185 -24 91 -172 -238 vvcurveto
          -1001 -5 rmoveto
          237 99 176 176 26 vhcurveto
          -878 vlineto
          -176 25 -99 170 244 vvcurveto
          endchar
        </CharString>
        <CharString name="Pigreek">
          1729 1550 206 rmoveto
          1032 vlineto
          91 25 28 103 24 vhcurveto
          63 -1627 -63 vlineto
          -36 callsubr
          -34 callsubr
          1165 399 -1165 vlineto
          -87 -22 -29 -95 -20 vhcurveto
          -63 731 63 vlineto
          -103 24 -25 28 91 vvcurveto
          endchar
        </CharString>
        <CharString name="Psigreek">
          2083 1267 222 rmoveto
          269 vlineto
          384 15 192 120 54 376 rrcurveto
          29 199 18 125 30 35 90 4 rlinecurve
          65 vlineto
          5 -36 -83 9 -72 hhcurveto
          -223 -122 -82 -243 -35 hvcurveto
          -30 -199 -34 -230 -39 -94 -123 -23 rlinecurve
          672 vlineto
          89 22 28 95 19 vhcurveto
          63 -685 -63 vlineto
          95 -19 23 -28 -89 vvcurveto
          -672 vlineto
          -125 23 -38 93 -35 231 -30 199 rcurveline
          243 -35 -122 82 -222 hhcurveto
          -72 -84 -9 -5 -35 hvcurveto
          -65 vlineto
          90 -4 30 -35 17 -125 rrcurveto
          29 -199 55 -376 191 -120 386 -15 rlinecurve
          -269 -86 callgsubr
          726 11 callsubr
          endchar
        </CharString>
        <CharString name="Q">
          18 callsubr
          -379 241 -277 376 -69 vhcurveto
          118 -125 rlineto
          -193 168 125 -66 182 hhcurveto
          149 141 43 76 122 hvcurveto
          59 vlineto
          -110 -18 -106 46 -182 149 -83 70 rcurveline
          293 111 181 263 319 vvcurveto
          440 -326 302 -484 -484 -321 -324 -427 vhcurveto
          536 13 rmoveto
          407 77 245 187 175 89 callsubr
          -174 -103 256 414 vhcurveto
          endchar
        </CharString>
        <CharString name="R">
          1577 1466 1055 152 callsubr
          endchar
        </CharString>
        <CharString name="Racute">
          1577 689 -80 callsubr
          858 -467 152 callsubr
          endchar
        </CharString>
        <CharString name="Rcaron">
          1577 1053 -73 callsubr
          27 callsubr
          334 -796 152 callsubr
          endchar
        </CharString>
        <CharString name="Rcommaaccent">
          -60 callgsubr
          -162 -1497 -49 callsubr
          9 callsubr
          -6 callsubr
          54 -1 40 -20 -39 vvcurveto
          -38 -91 callgsubr
          -96 callgsubr
        </CharString>
        <CharString name="Rdblgrave">
          1577 628 141 callsubr
          92 hlineto
          332 85 callgsubr
          442 -467 152 callsubr
          endchar
        </CharString>
        <CharString name="Rdotaccent">
          1577 762 -63 callsubr
          55 callsubr
          704 -459 152 callsubr
          endchar
        </CharString>
        <CharString name="Rdotbelow">
          -60 callgsubr
          -148 -1145 -42 callsubr
        </CharString>
        <CharString name="Rdotbelowmacron">
          1577 435 -37 callsubr
          1031 -698 152 callsubr
          -148 -1145 -42 callsubr
        </CharString>
        <CharString name="Rhogreek">
          1562 1500 1022 65 callsubr
        </CharString>
        <CharString name="Rinvertedbreve">
          1577 762 173 callsubr
          112 -60 -89 vhcurveto
          -1 73 78 callgsubr
          704 -846 152 callsubr
          endchar
        </CharString>
        <CharString name="Rlinebelow">
          -60 callgsubr
          -486 -1403 -83 callsubr
        </CharString>
        <CharString name="S">
          1358 620 -25 112 callsubr
          endchar
        </CharString>
        <CharString name="Sacute">
          1358 653 -80 callsubr
          48 -1547 112 callsubr
          endchar
        </CharString>
        <CharString name="Sacutedotaccent">
          1358 726 1774 188 callsubr
          347 -154 rmoveto
          181 vlineto
          58 callsubr
          242 -1551 112 callsubr
          endchar
        </CharString>
        <CharString name="Scaron">
          1358 1017 -73 callsubr
          -19 callsubr
          52 callsubr
          -476 -1876 112 callsubr
          endchar
        </CharString>
        <CharString name="Scarondotaccent">
          1358 726 1797 188 callsubr
          356 hmoveto
          -356 47 callgsubr
          -463 -1770 112 callsubr
          endchar
        </CharString>
        <CharString name="Scedilla">
          1358 638 -466 rmoveto
          -17 callsubr
          -112 69 -133 -13 -13 -1 -1 -13 hvcurveto
          59 60 rlineto
          349 19 248 166 295 vvcurveto
          227 -129 168 -281 89 vhcurveto
          -137 44 rlineto
          -159 51 -63 65 99 vvcurveto
          107 81 76 151 188 140 -165 -226 48 vhcurveto
          61 hlineto
          -5 391 rlineto
          53 -89 -161 33 -193 hhcurveto
          -418 -247 -182 -296 -223 143 -155 267 -85 hvcurveto
          137 -44 rlineto
          162 -51 62 -72 -105 vvcurveto
          -113 -90 -82 -149 -201 -193 183 277 -55 vhcurveto
          -60 hlineto
          13 -456 111 -53 190 -35 198 -2 rlinecurve
          -129 -143 1 -48 rlineto
          5 8 20 4 18 16 callsubr
          -58 -47 -46 74 callgsubr
        </CharString>
        <CharString name="Schwa">
          1580 728 -25 rmoveto
          504 276 311 430 510 -380 243 -487 -201 -183 -30 -52 -88 hvcurveto
          -6 -454 rlineto
          62 hlineto
          234 53 137 215 207 hhcurveto
          222 130 -246 -411 6 hvcurveto
          -924 hlineto
          -4 -27 -6 -46 -43 vvcurveto
          -379 244 -255 438 vhcurveto
          -219 555 rmoveto
          38 2 42 4 34 vhcurveto
          465 4 rlineto
          -379 -6 -78 -208 -166 hhcurveto
          -167 -54 230 239 hvcurveto
          endchar
        </CharString>
        <CharString name="Scircumflex">
          1358 472 -41 callsubr
          -50 callsubr
          226 -1547 112 callsubr
          endchar
        </CharString>
        <CharString name="Scommaaccent">
          1358 620 -25 112 callsubr
          26 -441 -49 callsubr
          -103 67 -130 -103 62 callsubr
          17 8 139 callsubr
          -62 -50 99 callsubr
          45 88 -40 108 hhcurveto
          endchar
        </CharString>
        <CharString name="Sdotaccent">
          1358 726 -63 callsubr
          56 callsubr
          -106 -1539 112 callsubr
          endchar
        </CharString>
        <CharString name="Sdotbelow">
          1358 620 -25 112 callsubr
          40 -89 -14 callsubr
          8 callsubr
        </CharString>
        <CharString name="Sdotbelowdotaccent">
          1358 726 -63 callsubr
          56 callsubr
          -106 -1539 112 callsubr
          40 -89 -14 callsubr
          8 callsubr
        </CharString>
        <CharString name="Shacyrillic">
          2566 2388 206 -95 callsubr
          18 callgsubr
          29 96 20 vhcurveto
          63 -721 -63 vlineto
          95 -20 22 -29 -86 vvcurveto
          -1166 -375 1166 vlineto
          86 22 29 95 20 vhcurveto
          63 -731 -63 vlineto
          -36 callsubr
          2465 63 vlineto
          -84 callsubr
        </CharString>
        <CharString name="Shchacyrillic">
          2585 2557 80 rmoveto
          -169 1158 hlineto
          91 24 28 104 24 vhcurveto
          63 18 callgsubr
          28 96 21 vhcurveto
          63 -721 -63 vlineto
          94 -21 23 -28 -86 vvcurveto
          -1166 -375 1166 vlineto
          86 22 29 95 20 vhcurveto
          63 -731 -63 vlineto
          -36 callsubr
          2061 vlineto
          251 65 -76 -273 77 hvcurveto
          61 hlineto
          endchar
        </CharString>
        <CharString name="Sigmagreek">
          68 callgsubr
          460 -728 -446 -401 rlineto
          -254 1211 vlineto
          13 623 rlineto
          -74 hlineto
          -223 -55 -75 -67 -306 hhcurveto
          -509 hlineto
          630 495 0 18 -315 525 159 -6 292 -15 86 -92 61 -251 rlinecurve
          62 hlineto
          endchar
        </CharString>
        <CharString name="Softsigncyrillic">
          1537 221 callsubr
          -510 2 -33 callgsubr
          35 callgsubr
        </CharString>
        <CharString name="T">
          1420 -39 callsubr
          -65 callsubr
          -48 callsubr
          -46 callsubr
          -45 callsubr
          -64 callsubr
          endchar
        </CharString>
        <CharString name="Taugreek">
          1420 -39 callsubr
          -65 callsubr
          -48 callsubr
          -46 callsubr
          -45 callsubr
          -64 callsubr
          endchar
        </CharString>
        <CharString name="Tbar">
          1420 186 703 rmoveto
          280 -482 hlineto
          -101 -25 -37 -75 callsubr
          -26 37 101 vvcurveto
          482 281 74 -281 594 -64 callsubr
          -11 442 -1324 0 -11 -65 callsubr
          -594 -280 vlineto
          endchar
        </CharString>
        <CharString name="Tcaron">
          1420 1001 -73 callsubr
          -19 callsubr
          52 callsubr
          292 -407 rmoveto
          -1324 hlineto
          -11 -65 callsubr
          -48 callsubr
          -46 callsubr
          -45 callsubr
          -64 callsubr
          endchar
        </CharString>
        <CharString name="Tcedilla">
          1420 688 -466 rmoveto
          152 125 70 126 120 -114 69 -131 -15 -15 -1 -2 -14 hvcurveto
          77 84 rlineto
          339 63 hlineto
          -113 20 -45 callsubr
          -64 callsubr
          -11 442 -1324 0 -11 -65 callsubr
          -48 callsubr
          346 vlineto
          -144 -168 1 -48 rlineto
          5 8 20 4 16 hhcurveto
          53 33 -23 -40 -41 -37 -23 -59 -46 -47 15 20 -24 hvcurveto
          -1 -61 rlineto
          -63 40 92 -43 109 hhcurveto
          endchar
        </CharString>
        <CharString name="Tcircumflexbelow">
          1420 -39 callsubr
          -65 callsubr
          -48 callsubr
          -46 callsubr
          -45 callsubr
          -64 callsubr
          -942 -1459 42 callsubr
          85 callsubr
        </CharString>
        <CharString name="Tcommaaccent">
          1420 -39 callsubr
          -65 callsubr
          -48 callsubr
          -46 callsubr
          -45 callsubr
          -64 callsubr
          -687 -1468 82 callsubr
          -89 callgsubr
          139 callsubr
          -62 callgsubr
        </CharString>
        <CharString name="Tdotaccent">
          1420 710 -63 callsubr
          56 callsubr
          662 -70 rmoveto
          -1324 hlineto
          -11 -65 callsubr
          -48 callsubr
          -46 callsubr
          -45 callsubr
          -64 callsubr
          endchar
        </CharString>
        <CharString name="Tdotbelow">
          1420 -39 callsubr
          -65 callsubr
          -48 callsubr
          -46 callsubr
          -45 callsubr
          -64 callsubr
          -673 -1116 -14 callsubr
          -38 callgsubr
        </CharString>
        <CharString name="Tecyrillic">
          1420 -39 callsubr
          -65 callsubr
          -48 callsubr
          -46 callsubr
          -45 callsubr
          -64 callsubr
          endchar
        </CharString>
        <CharString name="Thetagreek">
          1779 893 -25 rmoveto
          490 326 324 427 440 -333 303 -488 -492 -325 -325 -427 -440 332 -302 490 hvcurveto
          -3 74 rmoveto
          -211 -118 240 441 439 97 226 231 213 117 -237 -445 -437 -97 -227 -232 hvcurveto
          -225 413 rmoveto
          48 hlineto
          132 18 54 84 95 hhcurveto
          27 hlineto
          95 55 -84 -132 17 hvcurveto
          48 526 -48 hlineto
          -130 -17 -55 -84 -95 hhcurveto
          -27 hlineto
          -95 -54 84 130 -18 hvcurveto
          -48 hlineto
          endchar
        </CharString>
        <CharString name="Thorn">
          1550 1500 753 rmoveto
          272 -247 125 -431 vhcurveto
          -157 72 hlineto
          101 26 38 112 20 vhcurveto
          63 -752 -63 vlineto
          -36 callsubr
          -107 callgsubr
          103 157 vlineto
          412 1 266 156 271 vvcurveto
          -510 -21 rmoveto
          -200 -110 -123 -164 -8 vhcurveto
          -51 -3 0 679 51 -2 rlineto
          181 -10 93 -144 -189 vvcurveto
          endchar
        </CharString>
        <CharString name="Tlinebelow">
          1420 -39 callsubr
          -65 callsubr
          -48 callsubr
          -46 callsubr
          -45 callsubr
          -64 callsubr
          -1011 -1374 -83 callsubr
        </CharString>
        <CharString name="Tsecyrillic">
          1771 1744 80 rmoveto
          -170 1158 hlineto
          91 25 28 103 24 vhcurveto
          63 -732 -63 vlineto
          96 -20 22 -29 -87 vvcurveto
          -1165 -423 1165 vlineto
          87 22 29 95 20 vhcurveto
          63 -731 -63 vlineto
          -36 callsubr
          1248 vlineto
          250 65 -76 -273 78 hvcurveto
          61 hlineto
          endchar
        </CharString>
        <CharString name="Tshecyrillic">
          1912 -39 callsubr
          230 callsubr
          467 vlineto
          23 38 59 14 65 hhcurveto
          130 76 -77 -185 hvcurveto
          -449 604 63 vlineto
          -95 21 -22 28 87 vvcurveto
          212 vlineto
          299 -220 125 -274 -159 -128 -34 -45 -74 vhcurveto
          613 77 callgsubr
        </CharString>
        <CharString name="U">
          1544 156 1242 -89 callsubr
        </CharString>
        <CharString name="Uacute">
          1544 800 -80 callsubr
          -563 -280 -89 callsubr
        </CharString>
        <CharString name="Ubreve">
          1544 873 77 callsubr
          -72 -1 hlineto
          -92 -113 -58 -141 -11 callsubr
          62 callgsubr
          -717 -306 -89 callsubr
        </CharString>
        <CharString name="Ubrevecyrillic">
          1475 880 216 callsubr
          -669 -1375 197 callsubr
        </CharString>
        <CharString name="Ucaron">
          1544 1164 -73 callsubr
          27 callsubr
          -1087 -609 -89 callsubr
        </CharString>
        <CharString name="Ucircumflex">
          1544 619 -41 callsubr
          -50 callsubr
          -385 -280 -89 callsubr
        </CharString>
        <CharString name="Ucircumflexbelow">
          121 callsubr
          424 -1699 rmoveto
          268 158 269 -158 75 0 85 callsubr
        </CharString>
        <CharString name="Ucyrillic">
          1475 211 169 197 callsubr
        </CharString>
        <CharString name="Udblgrave">
          1544 739 141 callsubr
          92 hlineto
          332 85 callgsubr
          -979 -280 -89 callsubr
        </CharString>
        <CharString name="Udieresis">
          1544 688 1530 rmoveto
          -66 callsubr
          370 hmoveto
          -66 callsubr
          -902 -288 -89 callsubr
        </CharString>
        <CharString name="Udieresisacute">
          1544 1220 1883 rmoveto
          181 vlineto
          58 callsubr
          175 -243 -22 callsubr
          -71 -72 callsubr
          -7 callsubr
          -32 callsubr
          -14 hlineto
          -72 -72 callsubr
          72 hvcurveto
          -889 -304 -89 callsubr
        </CharString>
        <CharString name="Udieresisbelow">
          121 callsubr
          457 -1681 rmoveto
          99 81 68 94 95 -81 68 -99 -100 -81 -68 -95 -94 81 -68 100 hvcurveto
          471 hmoveto
          42 callgsubr
          endchar
        </CharString>
        <CharString name="Udieresiscaron">
          1544 1220 2048 rmoveto
          -347 -75 -348 75 0 -52 325 -190 47 0 324 190 rlineto
          -521 -450 -22 callsubr
          -71 -72 callsubr
          -7 callsubr
          -32 callsubr
          -14 hlineto
          -72 -72 callsubr
          72 hvcurveto
          -889 -304 -89 callsubr
        </CharString>
        <CharString name="Udieresisgrave">
          1544 525 1883 -44 callgsubr
          175 -518 -22 callsubr
          -71 -72 callsubr
          -7 callsubr
          -32 callsubr
          -14 hlineto
          -72 -72 callsubr
          72 hvcurveto
          -889 -304 -89 callsubr
        </CharString>
        <CharString name="Udieresismacron">
          1544 524 1854 rmoveto
          697 146 -697 hlineto
          176 -454 -22 callsubr
          -71 -72 callsubr
          -7 callsubr
          -32 callsubr
          -14 hlineto
          -72 -72 callsubr
          72 hvcurveto
          -889 -304 -89 callsubr
        </CharString>
        <CharString name="Udotbelow">
          121 callsubr
          692 -1356 95 callsubr
          45 callsubr
        </CharString>
        <CharString name="Ugrave">
          1544 985 137 callsubr
          -360 -581 -89 callsubr
        </CharString>
        <CharString name="Uhookabove">
          1544 922 79 callsubr
          -8 callgsubr
          -766 -636 -89 callsubr
        </CharString>
        <CharString name="Uhorn">
          1769 158 544 113 callsubr
        </CharString>
        <CharString name="Uhornacute">
          1769 807 -12 callsubr
          -569 -978 113 callsubr
        </CharString>
        <CharString name="Uhorndotbelow">
          190 callsubr
          639 -1353 -42 callsubr
        </CharString>
        <CharString name="Uhorngrave">
          190 callsubr
          834 283 92 callsubr
          endchar
        </CharString>
        <CharString name="Uhornhookabove">
          1769 930 79 callsubr
          167 callsubr
          -772 -1334 113 callsubr
        </CharString>
        <CharString name="Uhorntilde">
          1769 1011 87 callsubr
          145 callsubr
          -42 hvcurveto
          -30 131 callsubr
          178 callsubr
          -853 -989 113 callsubr
        </CharString>
        <CharString name="Uhungarumlaut">
          1544 643 1831 rmoveto
          22 -309 84 0 251 302 rlineto
          7 vlineto
          62 hmoveto
          -88 -309 93 0 391 302 rlineto
          7 vlineto
          -1302 -589 -89 callsubr
        </CharString>
        <CharString name="Uinvertedbreve">
          1544 873 173 callsubr
          -51 callgsubr
          -717 -659 -89 callsubr
        </CharString>
        <CharString name="Umacron">
          1544 546 -37 callsubr
          -390 -511 -89 callsubr
        </CharString>
        <CharString name="Umacrondieresis">
          1544 700 -67 callgsubr
          31 callgsubr
          -14 hlineto
          -72 -58 -43 -66 -64 58 -44 72 hvcurveto
          -495 -236 rmoveto
          645 147 -645 hlineto
          -394 -487 -89 callsubr
        </CharString>
        <CharString name="Uogonek">
          1544 845 -480 rmoveto
          131 105 73 107 30 hvcurveto
          61 vlineto
          -17 -15 -25 -11 -34 hhcurveto
          -77 -72 81 109 23 4 20 5 15 hvcurveto
          312 36 169 216 7 311 rrcurveto
          157 callsubr
          -21 23 -28 -90 vvcurveto
          -697 vlineto
          -384 270 -184 369 -2 vhcurveto
          -109 -50 -76 -94 -105 vvcurveto
          -122 100 -84 135 vhcurveto
          endchar
        </CharString>
        <CharString name="Upsilondieresisgreek">
          1454 656 88 callsubr
          49 callsubr
          -105 callgsubr
          -86 15 callsubr
          -836 -344 -51 callsubr
          -75 callsubr
          -67 callsubr
        </CharString>
        <CharString name="Upsilongreek">
          1454 190 -84 callgsubr
          -75 callsubr
          -67 callsubr
        </CharString>
        <CharString name="Upsilontonosgreek">
          1905 641 -84 callgsubr
          -112 -20 vhcurveto
          -63 763 63 vlineto
          -113 20 -69 callgsubr
          98 22 rlinecurve
          63 -396 -63 vlineto
          115 -18 19 -39 -74 -163 rrcurveto
          -194 -423 -212 432 -76 156 14 38 115 17 rlinecurve
          63 -780 -63 vlineto
          91 -23 34 -36 72 -136 rrcurveto
          -538 -141 -24 callsubr
          endchar
        </CharString>
        <CharString name="Uring">
          1544 565 1724 rmoveto
          -114 122 -75 186 86 callgsubr
          -186 -122 -77 -112 vhcurveto
          231 hmoveto
          77 31 55 46 45 31 -55 -77 -80 -31 -51 -45 -46 -31 52 79 vhcurveto
          -640 -482 -89 callsubr
        </CharString>
        <CharString name="Utilde">
          1544 1003 225 callsubr
          -847 -291 -89 callsubr
        </CharString>
        <CharString name="Utildeacute">
          1544 1220 1883 rmoveto
          181 vlineto
          51 callgsubr
          -3 hvcurveto
          -76 hlineto
          -49 -1 -27 -22 -58 hhcurveto
          -34 -35 7 12 -42 hvcurveto
          -44 11 rlineto
          14 -56 -55 13 -56 86 callsubr
          27 22 59 hhcurveto
          33 35 -7 -11 43 hvcurveto
          44 -80 callgsubr
          -853 -315 -89 callsubr
        </CharString>
        <CharString name="Utildebelow">
          121 callsubr
          826 -1673 136 callsubr
          -10 callgsubr
        </CharString>
        <CharString name="V">
          80 callgsubr
          endchar
        </CharString>
        <CharString name="Vdotbelow">
          80 callgsubr
          590 -1265 83 callsubr
        </CharString>
        <CharString name="Vecyrillic">
          1588 1526 425 119 callsubr
        </CharString>
        <CharString name="Vtilde">
          1525 1031 87 callsubr
          -74 hlineto
          -84 -30 -34 -50 -32 -27 11 27 -43 vhcurveto
          -30 17 rlineto
          37 -58 -53 18 -64 hhcurveto
          -125 -89 -93 -226 17 hvcurveto
          73 hlineto
          85 1 30 34 51 hhcurveto
          31 27 -13 -26 43 hvcurveto
          29 -17 rlineto
          -36 59 52 -19 64 hhcurveto
          -848 -382 rmoveto
          211 callsubr
          endchar
        </CharString>
        <CharString name="W">
          2354 173 1151 22 callsubr
        </CharString>
        <CharString name="Wacute">
          2354 1237 1522 rmoveto
          466 302 rlineto
          7 -450 vlineto
          -96 -309 rlineto
          -984 -371 22 callsubr
        </CharString>
        <CharString name="Wcircumflex">
          2354 1057 50 callsubr
          272 -129 -50 callsubr
          -805 -371 22 callsubr
        </CharString>
        <CharString name="Wdieresis">
          2354 1125 1530 rmoveto
          98 callsubr
          15 callsubr
          142 callsubr
          -1322 -379 22 callsubr
        </CharString>
        <CharString name="Wdotaccent">
          2354 1310 -40 callsubr
          -97 55 callsubr
          -1137 -363 22 callsubr
        </CharString>
        <CharString name="Wdotbelow">
          2354 173 1151 rmoveto
          338 -1152 350 0 315 1093 307 -1093 356 0 336 1129 58 195 34 37 99 21 rlinecurve
          63 -411 -63 vlineto
          122 -21 20 -41 -44 -183 rrcurveto
          -189 -767 -201 799 -41 157 7 32 117 24 rlinecurve
          63 -746 -63 vlineto
          112 -21 10 -33 -37 -150 rrcurveto
          -200 -808 -194 780 -42 170 24 39 129 23 rlinecurve
          63 -809 -63 vlineto
          98 -20 32 -41 50 -169 rrcurveto
          997 -1265 95 callsubr
          45 callsubr
        </CharString>
        <CharString name="Wgrave">
          2354 1422 1522 rmoveto
          79 hlineto
          -84 308 rlineto
          -463 -7 hlineto
          -781 -672 22 callsubr
        </CharString>
        <CharString name="X">
          1499 274 307 64 callsubr
        </CharString>
        <CharString name="Xdieresis">
          1499 691 1530 rmoveto
          98 callsubr
          -70 -61 -85 -86 70 -61 86 hvcurveto
          370 hmoveto
          -66 callsubr
          -787 -1223 64 callsubr
        </CharString>
        <CharString name="Xdotaccent">
          1499 876 -63 callsubr
          55 callsubr
          -602 -1207 64 callsubr
        </CharString>
        <CharString name="Xigreek">
          1365 1281 1444 rmoveto
          -1192 hlineto
          -25 -531 rlineto
          61 hlineto
          175 42 69 37 258 hhcurveto
          378 hlineto
          257 68 -37 -175 43 hvcurveto
          61 hlineto
          -647 -229 rmoveto
          59 hlineto
          172 59 -50 -155 31 hvcurveto
          57 492 -57 hlineto
          -154 -31 -59 -50 -172 hhcurveto
          -59 hlineto
          -174 -59 50 154 -31 hvcurveto
          -57 -492 57 hlineto
          155 31 59 50 174 hhcurveto
          653 -684 rmoveto
          91 callgsubr
          -355 hlineto
          -284 -74 53 213 -46 hvcurveto
          -61 hlineto
          18 -598 rlineto
          endchar
        </CharString>
        <CharString name="Xigreek.1">
          1365 654 684 rmoveto
          1 -352 -150 hlineto
          -284 -74 54 212 -46 hvcurveto
          -61 hlineto
          18 -598 1249 0 91 callgsubr
          -147 352 hlineto
          173 58 -50 -155 31 hvcurveto
          58 492 -58 hlineto
          -154 -31 -58 -50 -173 hhcurveto
          358 159 vlineto
          257 69 -38 -174 42 hvcurveto
          61 hlineto
          -20 531 -1192 0 -25 -531 rlineto
          61 hlineto
          174 42 69 38 258 hhcurveto
          161 -358 -1 hlineto
          -173 -59 50 154 -32 hvcurveto
          -57 -492 57 hlineto
          155 31 60 50 173 hhcurveto
          endchar
        </CharString>
        <CharString name="Y">
          1454 190 -84 callgsubr
          -75 callsubr
          -67 callsubr
        </CharString>
        <CharString name="Yacute">
          1454 768 -12 callsubr
          -498 -336 -51 callsubr
          -75 callsubr
          -67 callsubr
        </CharString>
        <CharString name="Ycircumflex">
          1454 588 50 callsubr
          93 callsubr
          -268 0 -217 -308 rlineto
          -320 -336 -51 callsubr
          -75 callsubr
          -67 callsubr
        </CharString>
        <CharString name="Ydieresis">
          1454 656 88 callsubr
          49 callsubr
          -105 callgsubr
          -86 15 callsubr
          -836 -344 -51 callsubr
          -75 callsubr
          -67 callsubr
        </CharString>
        <CharString name="Ydotaccent">
          1454 841 -40 callsubr
          12 callsubr
          -651 -328 -51 callsubr
          -75 callsubr
          -67 callsubr
        </CharString>
        <CharString name="Ydotbelow">
          1454 190 -84 callgsubr
          -75 callsubr
          -69 callgsubr
          97 22 rlinecurve
          63 -396 -63 vlineto
          229 callsubr
          551 -1300 -42 callsubr
        </CharString>
        <CharString name="Yericyrillic">
          2305 221 callsubr
          639 -234 rmoveto
          1032 vlineto
          91 23 28 104 24 vhcurveto
          63 -742 -63 vlineto
          105 -24 23 -28 -91 vvcurveto
          -91 callsubr
          -105 -24 vhcurveto
          -63 742 63 vlineto
          -104 24 -23 28 91 vvcurveto
          -1149 236 -33 callgsubr
          35 callgsubr
        </CharString>
        <CharString name="Ygrave">
          1454 953 1522 92 callsubr
          -295 -637 -51 callsubr
          -75 callsubr
          -67 callsubr
        </CharString>
        <CharString name="Yhookabove">
          1454 891 -49 callgsubr
          1 -46 rlineto
          20 23 167 callsubr
          -701 -692 -51 callsubr
          -75 callsubr
          -67 callsubr
        </CharString>
        <CharString name="Yicyrillic">
          843 237 1530 rmoveto
          -66 callsubr
          370 hmoveto
          -66 callsubr
          58 -1324 -95 callsubr
          -103 callsubr
          -91 callsubr
          -85 callsubr
          -84 callsubr
        </CharString>
        <CharString name="Ymacron">
          1454 514 -48 callgsubr
          -324 -567 -51 callsubr
          -75 callsubr
          -67 callsubr
        </CharString>
        <CharString name="Ytilde">
          1454 972 87 callsubr
          145 callsubr
          -42 hvcurveto
          -30 131 callsubr
          178 callsubr
          -782 -347 -51 callsubr
          -75 callsubr
          -67 callsubr
        </CharString>
        <CharString name="Z">
          1362 1285 hmoveto
          25 callsubr
        </CharString>
        <CharString name="Zacute">
          1362 650 -12 callsubr
          715 -1522 rmoveto
          25 callsubr
        </CharString>
        <CharString name="Zcaron">
          1362 1015 1851 rmoveto
          -273 -130 27 callsubr
          192 -1851 rmoveto
          25 callsubr
        </CharString>
        <CharString name="Zcircumflex">
          1362 470 50 callsubr
          93 callsubr
          105 callsubr
          894 -1522 rmoveto
          25 callsubr
        </CharString>
        <CharString name="Zdotaccent">
          1362 723 -40 callsubr
          -97 55 callsubr
          562 -1514 rmoveto
          25 callsubr
        </CharString>
        <CharString name="Zdotbelow">
          232 callsubr
          628 -115 rmoveto
          -95 -78 -67 -96 -95 78 -68 95 95 79 68 95 96 -79 67 -95 hvcurveto
          endchar
        </CharString>
        <CharString name="Zecyrillic">
          1330 1268 419 rmoveto
          233 -240 110 -282 11 vhcurveto
          271 26 217 112 205 vvcurveto
          251 -275 102 -415 -173 -167 -37 -49 -91 vhcurveto
          -6 -418 rlineto
          61 hlineto
          220 45 125 198 177 hhcurveto
          144 72 -97 -189 -202 -98 -106 -188 hvcurveto
          -99 -80 99 hlineto
          211 103 -110 -201 -223 -98 -114 -166 -163 -139 185 238 -51 hvcurveto
          -61 hlineto
          7 -421 rlineto
          -51 92 167 -37 177 hhcurveto
          406 338 125 319 hvcurveto
          endchar
        </CharString>
        <CharString name="Zetagreek">
          1362 1285 hmoveto
          25 callsubr
        </CharString>
        <CharString name="Zhecyrillic">
          2288 523 hmoveto
          328 685 60 1 rlineto
          -487 vlineto
          -89 -23 -28 -95 -19 vhcurveto
          -63 685 63 vlineto
          -94 19 -23 28 89 vvcurveto
          487 vlineto
          59 -1 328 -685 rlineto
          549 61 hlineto
          -59 27 -32 37 -114 230 rrcurveto
          -337 695 103 99 161 153 77 48 129 31 rlinecurve
          63 -461 -63 vlineto
          116 -23 11 -32 -114 -136 rrcurveto
          -356 -424 -60 -1 rlineto
          480 vlineto
          89 23 28 94 19 vhcurveto
          63 -685 -63 vlineto
          95 -19 23 -28 -89 vvcurveto
          -480 vlineto
          -61 1 -356 424 -113 136 12 32 114 23 rlinecurve
          63 -461 -63 vlineto
          129 -31 71 -46 161 -154 rrcurveto
          118 -117 -329 -678 -113 -230 -32 -37 -59 -27 rlinecurve
          -61 vlineto
          endchar
        </CharString>
        <CharString name="Zlinebelow">
          232 callsubr
          290 -373 -83 callsubr
        </CharString>
        <CharString name="a">
          1288 110 callsubr
          -98 callsubr
        </CharString>
        <CharString name="a.dnum">
          788 222 -12 rmoveto
          106 81 39 65 19 hvcurveto
          -67 13 83 -34 82 hhcurveto
          63 58 15 19 30 hvcurveto
          41 vlineto
          -1 -5 -8 -1 -7 hhcurveto
          -27 -21 19 39 hvcurveto
          225 vlineto
          145 -110 64 -201 -196 -104 -73 -82 -55 48 -42 64 63 49 46 58 35 -19 31 -29 17 vhcurveto
          2 11 12 1 12 hhcurveto
          90 43 -38 -91 hvcurveto
          -49 vlineto
          -108 -20 rlineto
          -196 -35 -68 -62 -81 vvcurveto
          -77 66 -53 106 vhcurveto
          91 169 rmoveto
          56 28 38 66 16 vhcurveto
          15 3 rlineto
          -150 vlineto
          -21 -6 -20 -13 -27 hhcurveto
          -32 -24 23 48 hvcurveto
          endchar
        </CharString>
        <CharString name="a.numr">
          786 222 670 193 callsubr
        </CharString>
        <CharString name="a.sups">
          788 222 837 193 callsubr
        </CharString>
        <CharString name="aacute">
          1288 502 32 callsubr
          -67 -1138 -99 callsubr
          -98 callsubr
        </CharString>
        <CharString name="abreve">
          1288 591 1138 rmoveto
          253 111 171 167 26 -1 -57 callgsubr
          84 callsubr
          -236 -1160 -99 callsubr
          -98 callsubr
        </CharString>
        <CharString name="abreveacute">
          1288 930 2 callsubr
          339 -312 -29 callsubr
          -236 -1121 -99 callsubr
          -98 callsubr
        </CharString>
        <CharString name="abrevecyrillic">
          1288 591 1133 rmoveto
          -27 callgsubr
          -236 -1155 -99 callsubr
          -98 callsubr
        </CharString>
        <CharString name="abrevedotbelow">
          1288 591 1138 rmoveto
          253 111 171 167 26 -1 -57 callgsubr
          84 callsubr
          -236 -1160 -99 callsubr
          63 callsubr
          160 -738 -53 callsubr
        </CharString>
        <CharString name="abrevegrave">
          1288 252 3 callsubr
          339 -635 -29 callsubr
          -236 -1121 -99 callsubr
          -98 callsubr
        </CharString>
        <CharString name="abrevehookabove">
          1288 579 1695 rmoveto
          -98 -29 callgsubr
          -124 vhcurveto
          12 -596 -29 callsubr
          -236 -1121 -99 callsubr
          -98 callsubr
        </CharString>
        <CharString name="abrevetilde">
          1288 724 1443 -28 callsubr
          -133 -344 -29 callsubr
          -236 -1121 -99 callsubr
          -98 callsubr
        </CharString>
        <CharString name="acaron">
          1288 880 -70 callsubr
          -15 callsubr
          -605 -1563 -99 callsubr
          -98 callsubr
        </CharString>
        <CharString name="acircumflex">
          1288 302 -82 callsubr
          -43 callsubr
          133 -1138 -99 callsubr
          -98 callsubr
        </CharString>
        <CharString name="acircumflexacute">
          1288 930 2 callsubr
          -312 vmoveto
          -55 callsubr
          103 -1184 -99 callsubr
          -98 callsubr
        </CharString>
        <CharString name="acircumflexdotbelow">
          1288 302 -82 callsubr
          -43 callsubr
          133 -1138 -99 callsubr
          63 callsubr
          160 -738 -53 callsubr
        </CharString>
        <CharString name="acircumflexgrave">
          1288 252 3 callsubr
          -635 vmoveto
          -55 callsubr
          103 -1184 -99 callsubr
          -98 callsubr
        </CharString>
        <CharString name="acircumflexhookabove">
          1288 850 -15 callgsubr
          103 -1184 -99 callsubr
          -98 callsubr
        </CharString>
        <CharString name="acircumflextilde">
          1288 724 1443 -28 callsubr
          -99 callgsubr
          103 -1184 -99 callsubr
          -98 callsubr
        </CharString>
        <CharString name="acute">
          1024 423 -74 callsubr
          -47 callsubr
          endchar
        </CharString>
        <CharString name="acutecmb">
          0 -89 -74 callsubr
          -47 callsubr
          endchar
        </CharString>
        <CharString name="acutecmb.short">
          0 -73 1097 99 callgsubr
          endchar
        </CharString>
        <CharString name="acutedotaccentcmb">
          0 1383 vmoveto
          183 callsubr
          -173 -87 callgsubr
          -59 vlineto
          endchar
        </CharString>
        <CharString name="acutedotaccentcmb.short">
          0 1774 vmoveto
          44 callgsubr
          348 -154 -35 callsubr
          endchar
        </CharString>
        <CharString name="acyrillic">
          1288 110 callsubr
          -98 callsubr
        </CharString>
        <CharString name="adblgrave">
          1288 399 101 callsubr
          5 callgsubr
          -484 -1138 -99 callsubr
          -98 callsubr
        </CharString>
        <CharString name="adieresis">
          1288 337 1144 rmoveto
          71 callgsubr
          507 hmoveto
          71 callgsubr
          -489 -1166 -99 callsubr
          -98 callsubr
        </CharString>
        <CharString name="adieresismacron">
          1288 251 102 callsubr
          158 -525 10 callsubr
          -15 hlineto
          -75 -61 -52 -77 -75 61 -53 75 hvcurveto
          393 hmoveto
          76 61 53 75 77 -61 52 -76 hvcurveto
          -14 hlineto
          -90 callgsubr
          -418 -1134 -99 callsubr
          -98 callsubr
        </CharString>
        <CharString name="adotaccent">
          1288 591 184 callsubr
          -101 callgsubr
          -236 -1154 -99 callsubr
          -98 callsubr
        </CharString>
        <CharString name="adotbelow">
          1288 110 callsubr
          63 callsubr
          160 -738 -53 callsubr
        </CharString>
        <CharString name="adotmacron">
          1288 251 164 callsubr
          -236 -1125 -99 callsubr
          -98 callsubr
        </CharString>
        <CharString name="ae">
          1743 361 -22 150 callsubr
        </CharString>
        <CharString name="aeacute">
          1743 829 -74 callsubr
          -47 callsubr
          -388 -1138 150 callsubr
        </CharString>
        <CharString name="aemacron">
          1743 555 7 callsubr
          -194 -1431 150 callsubr
        </CharString>
        <CharString name="agrave">
          1288 682 5 callsubr
          161 -1529 -99 callsubr
          -98 callsubr
        </CharString>
        <CharString name="ahookabove">
          1288 655 37 callsubr
          21 callsubr
          53 hhcurveto
          68 48 144 callsubr
          -300 -1557 -99 callsubr
          -98 callsubr
        </CharString>
        <CharString name="ainvertedbreve">
          1288 591 1519 rmoveto
          82 callgsubr
          125 callsubr
          1 23 25 vvcurveto
          167 -111 172 -253 vhcurveto
          -236 -1541 -99 callsubr
          -98 callsubr
        </CharString>
        <CharString name="alphagreek">
          1428 478 -21 192 callsubr
        </CharString>
        <CharString name="alphatonosgreek">
          1428 683 1116 rmoveto
          301 392 rlineto
          8 -374 vlineto
          -16 -400 rlineto
          -116 -1137 192 callsubr
        </CharString>
        <CharString name="amacron">
          1288 228 148 callsubr
          127 -1431 -99 callsubr
          -98 callsubr
        </CharString>
        <CharString name="ampersand">
          1757 522 -23 rmoveto
          184 131 66 131 139 hvcurveto
          153 -174 rlineto
          617 61 hlineto
          -65 19 -59 42 -164 179 rrcurveto
          -187 209 127 154 138 164 54 39 102 19 rlinecurve
          63 vlineto
          -417 -4 rlineto
          -64 vlineto
          99 -14 33 -42 -90 -134 rrcurveto
          -89 -132 -284 318 -4 4 -4 5 -4 4 rlinecurve
          214 45 147 102 144 vvcurveto
          166 -163 122 -294 -327 -196 -160 -211 -106 45 -96 91 -119 vhcurveto
          -249 -51 -142 -151 -2 -198 rrcurveto
          -230 -1 188 -170 279 hhcurveto
          198 1272 rmoveto
          90 49 43 67 80 47 -89 -120 -2 vhcurveto
          -1 -90 -27 -80 -55 -51 rrcurveto
          -117 137 -41 76 84 vvcurveto
          -275 -674 rmoveto
          58 16 50 34 36 vhcurveto
          33 -39 37 -42 42 -46 309 -350 rcurveline
          -16 -41 -40 -6 -43 hhcurveto
          -193 -152 157 198 -2 hvcurveto
          endchar
        </CharString>
        <CharString name="anoteleiagreek">
          585 292 604 168 callsubr
          endchar
        </CharString>
        <CharString name="aogonek">
          1287 110 callsubr
          -119 23 142 -60 138 hhcurveto
          20 20 1 1 19 hvcurveto
          -217 -96 -77 -96 -101 vvcurveto
          -110 96 -68 129 120 109 65 98 42 vhcurveto
          -1 62 rlineto
          -15 -15 -27 -9 -29 hhcurveto
          -47 -39 28 62 83 61 82 90 69 hvcurveto
          60 vlineto
          -2 -8 -14 -1 -13 hhcurveto
          -49 -37 34 78 hvcurveto
          450 vlineto
          258 -190 117 -341 -333 -180 -129 -151 -100 82 -73 106 105 84 79 101 73 -44 63 -64 26 vhcurveto
          8 29 31 4 33 hhcurveto
          158 80 -71 -178 hvcurveto
          -104 vlineto
          -189 -37 rlineto
          -339 -63 -119 -113 -153 vvcurveto
          -146 116 -97 184 vhcurveto
          139 311 rmoveto
          111 51 77 123 32 vhcurveto
          34 7 rlineto
          -304 vlineto
          -44 -13 -38 -27 -53 hhcurveto
          -59 -45 49 99 hvcurveto
          endchar
        </CharString>
        <CharString name="approxequal">
          1309 923 797 rmoveto
          -165 -171 266 -66 callgsubr
          183 -73 callgsubr
          70 callgsubr
          -531 vmoveto
          -165 -171 265 -66 callgsubr
          184 -73 callgsubr
          131 273 hvcurveto
          -122 hlineto
          -182 -1 -67 -82 -100 hhcurveto
          endchar
        </CharString>
        <CharString name="aring">
          1288 249 169 callsubr
          -207 -40 callgsubr
          60 callgsubr
          -152 -1349 -99 callsubr
          -98 callsubr
        </CharString>
        <CharString name="aringacute">
          1288 930 1524 -87 callgsubr
          -59 vlineto
          11 callgsubr
          -119 -58 -88 -89 119 -58 176 hvcurveto
          47 56 rmoveto
          -20 hlineto
          -49 -27 37 54 54 28 90 callgsubr
          -246 -1186 -99 callsubr
          -98 callsubr
        </CharString>
        <CharString name="aringbelow">
          1288 110 callsubr
          63 callsubr
          -182 -566 rmoveto
          -118 135 -76 207 206 135 75 119 115 -135 79 -206 -207 -135 -34 callgsubr
          51 51 32 -56 -79 -82 -32 -52 -51 -51 -33 53 81 vhcurveto
          endchar
        </CharString>
        <CharString name="asciicircum">
          1309 616 1444 rmoveto
          -464 -604 94 -87 405 528 409 -531 98 88 -465 606 rlineto
          endchar
        </CharString>
        <CharString name="asciitilde">
          1309 923 511 rmoveto
          -165 -171 265 -66 callgsubr
          184 -73 callgsubr
          70 callgsubr
          endchar
        </CharString>
        <CharString name="asterisk">
          848 413 1091 rmoveto
          22 hlineto
          75 178 rlineto
          121 54 -74 77 -66 hhcurveto
          -69 -72 -75 -123 54 hvcurveto
          107 -183 rmoveto
          11 -21 193 26 rlineto
          133 16 29 99 -34 59 -35 60 -100 26 -80 -109 rrcurveto
          -168 -177 rmoveto
          11 20 -118 156 rlineto
          -78 109 -103 -28 -32 -57 -36 -62 29 -96 135 -16 rrcurveto
          203 -54 rmoveto
          -11 20 -192 -25 rlineto
          -133 -16 -29 -99 34 -59 35 -60 100 -27 79 110 rrcurveto
          169 176 rmoveto
          -12 -19 118 -157 rlineto
          78 -109 102 28 34 58 35 61 -29 97 -133 16 rrcurveto
          -213 -1 rmoveto
          -23 hlineto
          -75 -177 rlineto
          -122 -54 74 -77 66 hhcurveto
          70 71 75 124 -54 hvcurveto
          endchar
        </CharString>
        <CharString name="at">
          2121 539 398 rmoveto
          -225 98 -119 154 139 119 92 176 62 vhcurveto
          -3 -16 -2 -26 -15 vvcurveto
          -135 4 74 -118 229 hhcurveto
          469 177 370 303 463 -393 327 -549 -555 -504 -406 -634 -543 415 -329 473 1 hvcurveto
          169 185 37 91 117 hvcurveto
          -3 65 rlineto
          -89 -137 -161 -20 -155 hhcurveto
          -438 -1 -369 297 490 vvcurveto
          595 471 362 492 510 336 -302 -419 -317 -191 -213 -191 -101 -28 59 104 22 vhcurveto
          149 692 -215 0 -179 -125 rlineto
          87 -32 -77 57 -117 hhcurveto
          -280 -184 -294 -322 hvcurveto
          392 4 rmoveto
          167 81 322 128 43 30 -35 -75 -12 vhcurveto
          -78 -363 rlineto
          -101 -22 -46 -60 -56 hhcurveto
          -48 -20 50 95 hvcurveto
          endchar
        </CharString>
        <CharString name="atilde">
          1288 735 1149 rmoveto
          138 95 104 249 -18 hvcurveto
          -74 hlineto
          -96 21 callgsubr
          -138 -94 -105 -250 19 hvcurveto
          74 hlineto
          99 34 38 56 37 138 callsubr
          -380 -1171 -99 callsubr
          -98 callsubr
        </CharString>
        <CharString name="austral">
          1513 196 301 rmoveto
          -64 -180 -32 -36 -100 -22 rrcurveto
          -63 404 63 vlineto
          -129 23 -27 40 55 172 rrcurveto
          32 98 469 0 34 -101 56 -168 -29 -41 -130 -23 rlinecurve
          -63 780 63 vlineto
          -100 21 -33 41 -60 168 -37 103 rcurveline
          230 50 -247 hlineto
          -79 223 rlineto
          326 50 -344 hlineto
          -258 726 -315 0 -255 -726 rlineto
          -343 -50 325 hlineto
          -78 -223 rlineto
          -247 -50 229 hlineto
          211 323 rmoveto
          126 390 130 -390 rlineto
          -345 -273 rmoveto
          73 223 289 0 75 -223 rlineto
          endchar
        </CharString>
        <CharString name="austral.tnum">
          1330 5 443 rmoveto
          -51 183 vlineto
          -28 -92 -52 -178 -27 -40 -75 -19 rlinecurve
          -63 333 63 vlineto
          -99 17 -22 43 46 172 rrcurveto
          26 97 362 0 26 -97 46 -174 -22 -38 -106 -20 rlinecurve
          -63 726 63 vlineto
          -79 19 -24 45 -50 169 -28 96 rcurveline
          183 51 -198 hlineto
          -65 222 rlineto
          263 50 -278 hlineto
          -214 729 -336 0 -214 -729 rlineto
          -277 -50 262 hlineto
          -65 -222 rlineto
          174 272 rmoveto
          95 358 95 -358 rlineto
          -263 -272 rmoveto
          59 222 218 0 59 -222 rlineto
          endchar
        </CharString>
        <CharString name="b">
          -95 callgsubr
          117 callsubr
          endchar
        </CharString>
        <CharString name="backslash">
          816 578 -280 rmoveto
          158 hlineto
          -498 1860 rlineto
          -158 hlineto
          endchar
        </CharString>
        <CharString name="baht">
          1546 46 30 rmoveto
          718 -220 51 220 hlineto
          351 7 320 131 270 vvcurveto
          225 -200 120 -299 8 vhcurveto
          232 8 217 93 204 vvcurveto
          211 -232 102 -389 5 vhcurveto
          217 -51 -217 -718 -63 vlineto
          72 callgsubr
          582 1248 rmoveto
          58 -1 28 -1 26 -3 24 -5 rlinecurve
          -531 vlineto
          -10 -1 -10 0 -10 -1 -106 -1 rcurveline
          347 270 rmoveto
          -149 -58 -81 -102 -28 vhcurveto
          507 vlineto
          106 -41 54 -90 -118 vvcurveto
          -347 -343 rmoveto
          106 -2 rlineto
          10 10 -1 -1 10 hvcurveto
          -607 vlineto
          -24 -5 -26 -3 -28 -1 -58 -1 rcurveline
          382 322 rmoveto
          -147 -65 -108 -130 -44 vhcurveto
          584 vlineto
          128 -36 67 -113 -136 vvcurveto
          endchar
        </CharString>
        <CharString name="baht.tnum">
          1330 15 38 rmoveto
          648 -227 52 228 hlineto
          317 11 271 128 255 22 callgsubr
          204 -202 99 -341 8 vhcurveto
          227 -52 -226 -648 -63 vlineto
          73 callgsubr
          540 1232 rmoveto
          38 -1 25 -1 24 -3 21 -6 rlinecurve
          -521 vlineto
          -9 -2 -10 0 -10 -1 -79 -1 rcurveline
          283 272 rmoveto
          -143 -44 -81 -79 -31 vhcurveto
          489 vlineto
          81 -42 42 -83 -109 vvcurveto
          -283 -344 rmoveto
          79 -2 10 -1 10 -1 9 -1 rlinecurve
          -599 vlineto
          -21 -5 -24 -3 -25 -1 -38 -1 rcurveline
          314 312 rmoveto
          -138 -52 -101 -102 -46 vhcurveto
          568 vlineto
          101 -40 53 -109 -134 vvcurveto
          endchar
        </CharString>
        <CharString name="bar">
          816 329 -280 rmoveto
          158 1860 -158 hlineto
          endchar
        </CharString>
        <CharString name="bdotaccent">
          1362 356 1558 rmoveto
          114 91 80 110 112 -91 79 -114 -114 -92 -79 -112 -110 92 -80 114 hvcurveto
          949 -1038 rmoveto
          117 callsubr
          endchar
        </CharString>
        <CharString name="bdotbelow">
          -95 callgsubr
          117 callsubr
          -170 -933 -77 callsubr
          -61 callsubr
        </CharString>
        <CharString name="becyrillic">
          1365 1309 504 rmoveto
          291 -220 197 -376 -255 -198 -124 -201 -77 vhcurveto
          -10 40 -6 45 51 vvcurveto
          174 69 131 452 25 vhcurveto
          108 7 347 22 99 115 15 274 rlinecurve
          -65 hlineto
          -20 -49 -79 -11 -244 -22 -253 -24 -151 -57 -131 -105 rrcurveto
          -157 -128 -92 -219 -315 vvcurveto
          -392 202 -251 414 343 285 203 323 vhcurveto
          -473 -19 rmoveto
          -327 -65 -97 -85 -106 -46 158 273 288 57 133 102 97 46 -135 -293 vhcurveto
          endchar
        </CharString>
        <CharString name="betagreek">
          1358 108 -460 rmoveto
          462 hlineto
          -6 224 -4 192 -4 167 rrcurveto
          -80 45 105 -64 133 hhcurveto
          247 203 159 283 282 -165 186 -263 28 hvcurveto
          193 17 154 99 172 vvcurveto
          192 -174 127 -346 -358 -216 -176 -436 -1 vhcurveto
          427 234 rmoveto
          190 33 100 107 93 42 -91 -158 -150 -53 -92 -119 -10 vhcurveto
          2 -309 rlineto
          148 -12 92 -96 -173 vvcurveto
          -160 -87 -66 -93 -65 -61 30 49 -25 vhcurveto
          -11 498 -3 255 195 vvcurveto
          endchar
        </CharString>
        <CharString name="bitcoin">
          1532 46 30 rmoveto
          567 -218 51 218 111 hlineto
          38 39 2 3 37 hvcurveto
          -224 51 229 vlineto
          292 34 241 130 234 vvcurveto
          225 -200 120 -299 8 vhcurveto
          233 8 215 93 204 vvcurveto
          185 -177 101 -305 26 vhcurveto
          223 -51 -220 vlineto
          2 -36 -39 1 -39 hhcurveto
          -111 217 -51 -217 -567 -63 hlineto
          72 callgsubr
          916 974 rmoveto
          -185 -89 -80 -152 -4 vhcurveto
          -93 -1 0 544 46 -1 rlineto
          190 -6 98 -108 -159 vvcurveto
          34 -642 rmoveto
          -190 -108 -124 -214 -7 vhcurveto
          -46 -1 0 621 93 -2 rlineto
          180 -4 95 -130 -163 vvcurveto
          endchar
        </CharString>
        <CharString name="bitcoin.tnum">
          1330 15 38 rmoveto
          506 -227 51 227 95 hlineto
          40 39 2 3 38 hvcurveto
          -232 51 238 vlineto
          263 37 205 125 222 22 callgsubr
          179 -155 98 -269 27 vhcurveto
          233 -51 -229 vlineto
          3 -37 -38 1 -41 hhcurveto
          -95 225 -51 -225 -506 -63 hlineto
          73 callgsubr
          820 968 rmoveto
          -186 -75 -81 -130 -4 vhcurveto
          -70 -1 rlineto
          518 12 18 vlineto
          16 -1 rlineto
          160 -6 87 -103 -154 vvcurveto
          29 -649 rmoveto
          -181 -92 -120 -184 -7 vhcurveto
          -28 -1 0 614 70 -2 rlineto
          155 -6 79 -133 -164 vvcurveto
          endchar
        </CharString>
        <CharString name="blinebelow">
          -95 callgsubr
          117 callsubr
          -508 -856 -83 callsubr
        </CharString>
        <CharString name="braceleft">
          816 617 1053 rmoveto
          198 vlineto
          145 4 120 164 vhcurveto
          64 -39 vlineto
          -373 -162 -131 -264 hvcurveto
          -308 vlineto
          -154 -58 -43 -127 vhcurveto
          -62 vlineto
          127 58 -44 -157 hvcurveto
          -302 vlineto
          -264 162 -131 373 vhcurveto
          39 64 hlineto
          -164 -4 120 146 hvcurveto
          195 vlineto
          252 -149 121 -310 31 vhcurveto
          310 31 149 122 251 vvcurveto
          endchar
        </CharString>
        <CharString name="braceright">
          816 197 1053 rmoveto
          -251 150 -122 311 -31 vhcurveto
          -310 -31 -151 -121 -252 vvcurveto
          -195 vlineto
          -146 -3 -120 -163 vhcurveto
          -64 38 vlineto
          373 162 131 264 hvcurveto
          302 vlineto
          157 58 44 126 vhcurveto
          62 vlineto
          -126 -58 43 154 hvcurveto
          308 vlineto
          264 -162 131 -373 vhcurveto
          -38 -64 hlineto
          163 3 -120 -145 hvcurveto
          endchar
        </CharString>
        <CharString name="bracketleft">
          816 168 -287 rmoveto
          612 7 0 65 -219 14 0 1702 219 14 0 65 -612 7 rlineto
          endchar
        </CharString>
        <CharString name="bracketright">
          816 647 1587 rmoveto
          -611 -7 0 -65 218 -14 0 -1702 -218 -14 0 -65 611 -7 rlineto
          endchar
        </CharString>
        <CharString name="breve">
          1024 512 -94 callgsubr
          -125 -67 -160 84 callsubr
          endchar
        </CharString>
        <CharString name="breveacutecmb">
          -81 callgsubr
          339 -312 -29 callsubr
          endchar
        </CharString>
        <CharString name="breveacutecmb.short">
          -102 callgsubr
          348 -257 -27 callsubr
          -92 callgsubr
        </CharString>
        <CharString name="brevebelowcmb">
          0 -460 vmoveto
          1 callgsubr
        </CharString>
        <CharString name="brevecmb">
          0 1138 vmoveto
          33 callgsubr
          -125 -67 -160 84 callsubr
          endchar
        </CharString>
        <CharString name="brevecmb.short">
          0 1123 vmoveto
          227 104 148 145 22 -2 20 -3 18 hvcurveto
          -72 -10 callsubr
          -11 callsubr
          33 callsubr
          endchar
        </CharString>
        <CharString name="brevecyrilliccmb">
          0 1133 vmoveto
          -27 callgsubr
          endchar
        </CharString>
        <CharString name="brevecyrilliccmb.short">
          0 1544 vmoveto
          12 callgsubr
          -50 -64 -18 callgsubr
          endchar
        </CharString>
        <CharString name="brevegravecmb">
          0 -339 3 callsubr
          339 -635 -29 callsubr
          endchar
        </CharString>
        <CharString name="brevegravecmb.short">
          0 -348 1883 -44 callgsubr
          348 -532 -27 callsubr
          -92 callgsubr
        </CharString>
        <CharString name="brevehookabovecmb">
          0 -11 1695 rmoveto
          -99 -29 callgsubr
          -123 vhcurveto
          11 -596 -29 callsubr
          endchar
        </CharString>
        <CharString name="brevehookabovecmb.short">
          0 -11 2042 rmoveto
          -101 -79 -40 -58 -45 hvcurveto
          -39 vlineto
          16 26 52 13 49 hhcurveto
          80 41 -29 -36 -38 -40 -30 -86 -14 hvcurveto
          56 -30 rlineto
          178 20 86 47 84 vvcurveto
          80 -90 54 -127 vhcurveto
          11 -510 -27 callsubr
          -92 callgsubr
        </CharString>
        <CharString name="brevetildecmb">
          0 133 1443 -28 callsubr
          -133 -344 -29 callsubr
          endchar
        </CharString>
        <CharString name="brevetildecmb.short">
          0 137 1828 rmoveto
          137 77 76 136 -3 hvcurveto
          -75 hlineto
          -49 -1 -28 -21 -58 hhcurveto
          -33 -35 7 11 -43 hvcurveto
          -44 11 rlineto
          14 -56 -54 13 -57 hhcurveto
          -137 -78 -76 -136 4 hvcurveto
          75 hlineto
          49 1 28 21 58 hhcurveto
          33 35 -7 -11 43 hvcurveto
          44 -12 rlineto
          -14 56 54 -12 57 hhcurveto
          -137 -296 -27 callsubr
          -92 callgsubr
        </CharString>
        <CharString name="brokenbar">
          816 329 789 rmoveto
          158 791 -158 hlineto
          -1860 vmoveto
          158 791 -158 hlineto
          endchar
        </CharString>
        <CharString name="bullet">
          779 389 305 rmoveto
          168 137 138 167 167 -137 138 -168 -168 -137 -138 -167 -167 137 -138 168 hvcurveto
          endchar
        </CharString>
        <CharString name="c">
          1137 643 -22 29 callsubr
        </CharString>
        <CharString name="cacute">
          1137 564 32 callsubr
          159 -1138 29 callsubr
        </CharString>
        <CharString name="caret">
          585 260 hmoveto
          -300 -378 76 -73 253 321 258 -323 78 73 -300 380 rlineto
          endchar
        </CharString>
        <CharString name="caron">
          1024 801 -70 callsubr
          -15 callsubr
          endchar
        </CharString>
        <CharString name="caroncmb">
          0 289 -70 callsubr
          -15 callsubr
          endchar
        </CharString>
        <CharString name="caroncmb.short">
          0 292 1425 rmoveto
          -273 -129 -272 129 -80 0 217 -309 52 callsubr
          endchar
        </CharString>
        <CharString name="carondotaccentcmb">
          0 1383 vmoveto
          183 callsubr
          12 182 callsubr
          endchar
        </CharString>
        <CharString name="carondotaccentcmb.short">
          0 1797 vmoveto
          44 callgsubr
          357 hmoveto
          -357 47 callgsubr
          endchar
        </CharString>
        <CharString name="caronslovak">
          1024 406 1101 rmoveto
          280 425 -301 0 -46 -425 rlineto
          endchar
        </CharString>
        <CharString name="caronslovakcmb">
          0 81 1101 rmoveto
          281 425 -302 0 -45 -425 rlineto
          endchar
        </CharString>
        <CharString name="ccaron">
          1137 942 -70 callsubr
          -15 callsubr
          -379 -1563 29 callsubr
        </CharString>
        <CharString name="ccedilla">
          1137 614 -466 rmoveto
          -17 callsubr
          -112 -104 callgsubr
          185 5 159 71 82 114 rlinecurve
          158 callsubr
          25 callgsubr
        </CharString>
        <CharString name="ccedillaacute">
          1137 564 32 callsubr
          130 -1582 rmoveto
          -17 callsubr
          -112 -104 callgsubr
          185 5 159 71 82 114 rlinecurve
          158 callsubr
          25 callgsubr
        </CharString>
        <CharString name="ccircumflex">
          1137 364 -82 callsubr
          -43 callsubr
          359 -1138 29 callsubr
        </CharString>
        <CharString name="cdotaccent">
          1137 653 184 callsubr
          -101 callgsubr
          -10 -1154 29 callsubr
        </CharString>
        <CharString name="cedi">
          1362 855 -188 rmoveto
          51 201 hlineto
          153 4 155 33 77 48 12 374 rcurveline
          -62 hlineto
          -55 -245 -121 -124 -159 -4 rrcurveto
          1247 vlineto
          169 -5 116 -145 50 -223 rrcurveto
          60 hlineto
          -10 375 -82 45 -131 34 -172 4 rlinecurve
          200 -51 -199 vlineto
          -461 -5 -313 -287 -420 vvcurveto
          -420 306 -283 468 -5 vhcurveto
          -301 730 rmoveto
          342 116 229 185 30 vhcurveto
          -1241 vlineto
          -198 33 -103 264 343 vvcurveto
          endchar
        </CharString>
        <CharString name="cedi.tnum">
          1330 825 -188 rmoveto
          51 200 hlineto
          142 5 144 31 74 46 9 384 rcurveline
          -60 hlineto
          -53 -244 -111 -130 -145 -6 rrcurveto
          1248 vlineto
          153 -7 108 -151 47 -220 rrcurveto
          60 hlineto
          -9 382 -78 44 -123 33 -158 5 rlinecurve
          199 -51 -198 vlineto
          -444 -5 -301 -289 -420 vvcurveto
          -423 294 -280 451 -5 vhcurveto
          -276 730 rmoveto
          341 107 230 169 31 vhcurveto
          -1242 vlineto
          -182 33 -94 261 346 vvcurveto
          endchar
        </CharString>
</ttFont>
